<svg width="53" height="53" viewBox="0 0 53 53" fill="none" xmlns="http://www.w3.org/2000/svg">
<g clip-path="url(#clip0_10_137)">
<path d="M27.2702 53H25.7154C18.7584 52.6826 12.8387 50.1478 7.95621 45.3957C3.00299 40.575 0.288807 34.1891 0 27.2474V25.7195C0.498947 11.5886 11.6693 0.507225 25.7516 0H27.2608C41.3866 0.488594 52.4648 11.6362 53 25.704V27.3126C52.7564 33.3752 50.7482 38.7128 46.9754 43.3254C42.1536 49.2186 34.9686 52.7381 27.2702 53ZM2.65621 26.5041C2.65621 32.8287 5.16864 38.8943 9.6408 43.3664C14.113 47.8386 20.1785 50.351 26.5031 50.351C32.8277 50.351 38.8932 47.8386 43.3654 43.3664C47.8376 38.8943 50.35 32.8287 50.35 26.5041C50.35 20.1796 47.8376 14.114 43.3654 9.64184C38.8932 5.16968 32.8277 2.65725 26.5031 2.65725C20.1785 2.65725 14.113 5.16968 9.6408 9.64184C5.16864 14.114 2.65621 20.1796 2.65621 26.5041Z" fill="#845E33"/>
<path d="M21.908 26.5197C24.9659 29.1959 28.0255 31.8735 31.0868 34.5525C31.6105 35.01 31.9749 35.4976 31.742 36.1621C31.419 37.0876 30.3528 37.4043 29.6013 36.7501C26.215 33.8013 22.8314 30.8487 19.4506 27.8923C19.0179 27.5141 18.7515 27.2108 18.6514 26.9824C18.3109 26.206 18.786 25.6895 19.3853 25.1646C22.7745 22.2013 26.1636 19.2387 29.5527 16.2768C30.9449 15.0595 32.6685 17.0677 31.3176 18.2488C28.1831 20.9899 25.0466 23.7337 21.908 26.4803C21.9052 26.4828 21.9029 26.4858 21.9013 26.4892C21.8998 26.4926 21.899 26.4963 21.899 26.5C21.899 26.5037 21.8998 26.5074 21.9013 26.5108C21.9029 26.5142 21.9052 26.5172 21.908 26.5197Z" fill="#845E33"/>
</g>
<defs>
<clipPath id="clip0_10_137">
<rect width="53" height="53" fill="white" transform="matrix(-1 0 0 -1 53 53)"/>
</clipPath>
</defs>
</svg>
