<svg width="8" height="15" viewBox="0 0 8 15" fill="none" xmlns="http://www.w3.org/2000/svg">
<path d="M1.81338 7.51583C3.45855 9.4096 5.10465 11.3044 6.75167 13.2001C7.03348 13.5239 7.22952 13.8689 7.10421 14.3391C6.93045 14.994 6.35681 15.2181 5.95248 14.7552C4.13058 12.6685 2.31016 10.5792 0.491225 8.48713C0.258429 8.21952 0.115112 8.0049 0.0612755 7.84326C-0.121954 7.29388 0.133676 6.92836 0.456138 6.55698C2.27953 4.46005 4.10291 2.36362 5.9263 0.26767C6.67537 -0.593759 7.60266 0.827307 6.87587 1.6631C5.18948 3.60278 3.50199 5.54441 1.81338 7.48799C1.81185 7.48971 1.81062 7.49185 1.80978 7.49425C1.80894 7.49665 1.8085 7.49927 1.8085 7.50191C1.8085 7.50456 1.80894 7.50717 1.80978 7.50957C1.81062 7.51198 1.81185 7.51411 1.81338 7.51583Z" fill="#845E33" fill-opacity="0.7"/>
</svg>
