<svg width="8" height="15" viewBox="0 0 8 15" fill="none" xmlns="http://www.w3.org/2000/svg">
<path d="M5.32944 7.51583C3.68427 9.4096 2.03818 11.3044 0.39115 13.2001C0.109344 13.5239 -0.0866956 13.8689 0.0386136 14.3391C0.212376 14.994 0.786013 15.2181 1.19034 14.7552C3.01225 12.6685 4.83266 10.5792 6.6516 8.48713C6.88439 8.21952 7.02771 8.0049 7.08155 7.84326C7.26478 7.29388 7.00915 6.92836 6.68668 6.55698C4.8633 4.46005 3.03991 2.36362 1.21652 0.26767C0.467449 -0.593759 -0.459838 0.827307 0.266955 1.6631C1.95334 3.60278 3.64083 5.54441 5.32944 7.48799C5.33097 7.48971 5.3322 7.49185 5.33304 7.49425C5.33388 7.49665 5.33432 7.49927 5.33432 7.50191C5.33432 7.50456 5.33388 7.50717 5.33304 7.50957C5.3322 7.51198 5.33097 7.51411 5.32944 7.51583Z" fill="#845E33" fill-opacity="0.7"/>
</svg>
