<svg width="33" height="33" viewBox="0 0 33 33" fill="none" xmlns="http://www.w3.org/2000/svg">
<g clip-path="url(#clip0_7_104)">
<path d="M16.5019 0L16.498 3.92971" stroke="#FDA816" stroke-width="2"/>
<path d="M16.498 3.92972C13.8632 3.95335 11.5128 4.67544 9.44687 6.09599C5.96254 8.49107 3.90261 12.3769 3.9342 16.5806C3.9864 23.5312 9.58673 29.0168 16.4987 29.0677" stroke="#FCCB38" stroke-width="2"/>
<path d="M16.4987 29.0677L16.4974 33" stroke="#FDA816" stroke-width="2"/>
<path d="M16.4987 29.0685C16.4997 29.0665 16.5007 29.0646 16.5016 29.0626" stroke="#FFB522" stroke-width="2"/>
<path d="M16.5013 29.0626C16.8055 29.0709 17.1026 29.078 17.4004 29.0548C20.1274 28.8402 22.7146 27.7935 24.7616 25.9843C27.2418 23.792 28.6655 21.0216 29.0329 17.6731C29.0548 17.4724 29.0662 17.2485 29.0671 17.0015C29.069 16.4368 29.0812 15.8432 29.029 15.3199C28.7463 12.4887 27.6622 10.0478 25.7767 7.99735C23.563 5.59024 20.7771 4.23823 17.4191 3.94131C17.1995 3.92198 16.9005 3.92155 16.5219 3.94003" stroke="#FDA816" stroke-width="2"/>
<path d="M16.5219 3.94003C16.5064 3.93874 16.4985 3.9353 16.498 3.92972" stroke="#FFB522" stroke-width="2"/>
<path d="M16.5219 3.94003L16.5 7.80851C16.5 7.83171 16.4886 7.84374 16.4658 7.8446C16.0628 7.86308 15.7803 8.03646 15.6183 8.36474C14.9441 9.73201 14.2731 11.0922 13.6054 12.4453C13.5986 12.4588 13.5887 12.4705 13.5765 12.4794C13.5642 12.4882 13.5501 12.494 13.5351 12.4962C12.0729 12.7089 10.6107 12.9218 9.14847 13.1349C8.9448 13.1646 8.79441 13.2045 8.6973 13.2548C8.09402 13.57 8.01087 14.346 8.48782 14.8133C9.5745 15.878 10.6646 16.943 11.7582 18.0082C11.7741 18.0233 11.7801 18.0417 11.7762 18.0636C11.5356 19.4808 11.293 20.8974 11.0485 22.3137C10.9957 22.6183 10.9826 22.8362 11.0092 22.9672C11.0988 23.4094 11.5371 23.7426 11.9902 23.7226C12.1303 23.7166 12.3133 23.6547 12.5393 23.537C13.8581 22.8508 15.1781 22.1584 16.4993 21.4597" stroke="#FCCB38" stroke-width="2"/>
<path d="M16.4993 21.4597C16.5088 21.4859 16.5163 21.4899 16.5219 21.4719" stroke="#FFB522" stroke-width="2"/>
<path d="M16.5219 21.4719L16.5013 29.0626" stroke="#FCCB38" stroke-width="2"/>
<path d="M16.5219 21.4719C17.8079 22.1431 19.0923 22.8185 20.3749 23.4983C20.619 23.6281 20.8037 23.7011 20.9292 23.7175C21.4016 23.78 21.8889 23.4403 21.9869 22.9788C22.0161 22.8392 22.0021 22.6037 21.945 22.2724C21.7026 20.8725 21.462 19.47 21.2231 18.0649C21.2192 18.043 21.2252 18.0243 21.2411 18.0088C22.2595 17.0167 23.2776 16.0243 24.2956 15.0318C24.5285 14.8049 24.6722 14.6388 24.7268 14.5335C24.9524 14.0978 24.7609 13.4855 24.3233 13.2612C24.212 13.2036 23.9858 13.1502 23.6446 13.1007C22.2481 12.8966 20.8495 12.6934 19.4487 12.491C19.4388 12.4896 19.4293 12.4858 19.4211 12.4798C19.4129 12.4739 19.4062 12.466 19.4017 12.4569C18.7533 11.1429 18.1042 9.8291 17.4545 8.51554C17.2399 8.08177 17.0111 7.85876 16.5354 7.84459C16.5114 7.84416 16.4993 7.85597 16.4993 7.88003V21.4597" stroke="#FDA816" stroke-width="2"/>
<path d="M16.0102 0H16.5019L16.4981 3.92971C13.8632 3.95334 11.5128 4.67543 9.44689 6.09598C5.96256 8.49105 3.90264 12.3769 3.93422 16.5806C3.98643 23.5312 9.58676 29.0168 16.4987 29.0677L16.4974 33H16.0179C7.2368 32.679 0.322266 25.7587 0 16.9898V16.0011C0.149531 12.2551 1.38102 8.95318 3.69445 6.09533C6.69475 2.38863 11.1871 0.170156 16.0102 0Z" fill="#FABE2C"/>
<path d="M16.5019 0H17.3701C17.7031 0.0335156 18.0357 0.0689648 18.3679 0.106348C20.469 0.340957 22.4493 0.957773 24.3085 1.9568C26.4 3.08021 28.2775 4.69025 29.7103 6.61225C31.6899 9.26729 32.7865 12.2766 33 15.6402V17.3695C32.9399 18.0574 32.8868 18.5571 32.8408 18.8687C32.2021 23.2031 29.8547 27.1361 26.3543 29.738C23.7082 31.7051 20.7101 32.7925 17.3598 33H16.4974L16.4987 29.0677C16.4996 29.066 16.5004 29.0643 16.5013 29.0626C16.8055 29.0709 17.1027 29.078 17.4004 29.0548C20.1274 28.8402 22.7146 27.7935 24.7616 25.9843C27.2418 23.792 28.6655 21.0216 29.0329 17.673C29.0548 17.4724 29.0662 17.2485 29.0671 17.0014C29.069 16.4368 29.0813 15.8432 29.0291 15.3199C28.7463 12.4887 27.6622 10.0478 25.7768 7.99734C23.563 5.59023 20.7771 4.23822 17.4191 3.94131C17.1995 3.92197 16.9005 3.92154 16.5219 3.94002C16.5065 3.93873 16.4985 3.93529 16.4981 3.92971L16.5019 0Z" fill="#FF9100"/>
<path d="M16.498 3.92972C16.4985 3.9353 16.5064 3.93874 16.5219 3.94003L16.5 7.80851C16.5 7.83171 16.4886 7.84374 16.4658 7.8446C16.0628 7.86308 15.7803 8.03646 15.6183 8.36474C14.9441 9.732 14.2731 11.0922 13.6054 12.4453C13.5986 12.4588 13.5887 12.4705 13.5764 12.4794C13.5642 12.4882 13.55 12.494 13.5351 12.4962C12.0729 12.7089 10.6107 12.9218 9.14845 13.1349C8.94478 13.1646 8.79439 13.2045 8.69728 13.2548C8.094 13.57 8.01086 14.346 8.48781 14.8133C9.57449 15.878 10.6646 16.943 11.7582 18.0082C11.7741 18.0233 11.7801 18.0417 11.7762 18.0636C11.5356 19.4808 11.293 20.8974 11.0485 22.3137C10.9957 22.6183 10.9826 22.8362 11.0092 22.9672C11.0988 23.4094 11.5371 23.7426 11.9902 23.7226C12.1303 23.7166 12.3133 23.6547 12.5393 23.537C13.858 22.8508 15.178 22.1584 16.4993 21.4597C16.5088 21.4859 16.5163 21.49 16.5219 21.4719L16.5013 29.0626C16.5004 29.0643 16.4995 29.066 16.4987 29.0677C9.58673 29.0168 3.9864 23.5312 3.9342 16.5806C3.90261 12.3769 5.96254 8.49107 9.44687 6.09599C11.5128 4.67544 13.8632 3.95335 16.498 3.92972Z" fill="#FED843"/>
<path d="M16.5013 29.0626L16.5219 21.4719C17.808 22.1431 19.0923 22.8186 20.3749 23.4983C20.619 23.6281 20.8037 23.7011 20.9292 23.7175C21.4017 23.78 21.8889 23.4403 21.9869 22.9788C22.0161 22.8392 22.0021 22.6037 21.945 22.2724C21.7027 20.8725 21.462 19.47 21.2231 18.0649C21.2193 18.043 21.2253 18.0243 21.2412 18.0089C22.2595 17.0167 23.2777 16.0243 24.2956 15.0318C24.5285 14.8049 24.6722 14.6388 24.7268 14.5335C24.9524 14.0978 24.761 13.4855 24.3233 13.2612C24.212 13.2037 23.9858 13.1502 23.6446 13.1007C22.2481 12.8966 20.8495 12.6934 19.4487 12.491C19.4388 12.4896 19.4293 12.4858 19.4211 12.4798C19.4129 12.4739 19.4062 12.466 19.4017 12.4569C18.7533 11.1429 18.1042 9.82911 17.4545 8.51555C17.2399 8.08178 17.0111 7.85878 16.5354 7.8446C16.5114 7.84417 16.4993 7.85598 16.4993 7.88005V21.4597C15.1781 22.1583 13.8581 22.8508 12.5393 23.537C12.3133 23.6547 12.1303 23.7166 11.9902 23.7226C11.5371 23.7426 11.0988 23.4094 11.0092 22.9672C10.9826 22.8362 10.9957 22.6183 11.0485 22.3137C11.293 20.8974 11.5356 19.4807 11.7762 18.0636C11.7801 18.0417 11.7741 18.0232 11.7582 18.0082C10.6646 16.943 9.5745 15.878 8.48782 14.8133C8.01087 14.346 8.09402 13.57 8.6973 13.2548C8.79441 13.2045 8.9448 13.1646 9.14847 13.1349C10.6107 12.9218 12.0729 12.7089 13.5351 12.4962C13.5501 12.494 13.5642 12.4882 13.5765 12.4794C13.5887 12.4705 13.5986 12.4588 13.6054 12.4453C14.2731 11.0922 14.9441 9.732 15.6183 8.36473C15.7803 8.03645 16.0628 7.86307 16.4658 7.8446C16.4886 7.84374 16.5 7.83171 16.5 7.8085L16.5219 3.94003C16.9005 3.92155 17.1995 3.92198 17.4191 3.94131C20.7771 4.23823 23.563 5.59024 25.7767 7.99735C27.6622 10.0478 28.7463 12.4887 29.029 15.3199C29.0812 15.8432 29.069 16.4368 29.0671 17.0015C29.0662 17.2485 29.0548 17.4724 29.0329 17.6731C28.6655 21.0216 27.2418 23.792 24.7616 25.9843C22.7146 27.7935 20.1274 28.8402 17.4004 29.0548C17.1026 29.078 16.8055 29.0709 16.5013 29.0626Z" fill="#FABE2C"/>
<path d="M16.5219 21.4719C16.5163 21.49 16.5088 21.4859 16.4993 21.4597V7.88003C16.4993 7.85597 16.5114 7.84416 16.5354 7.84459C17.0111 7.85876 17.2399 8.08177 17.4545 8.51554C18.1042 9.8291 18.7533 11.1429 19.4017 12.4569C19.4062 12.466 19.4129 12.4739 19.4211 12.4798C19.4293 12.4858 19.4388 12.4896 19.4487 12.491C20.8495 12.6934 22.2481 12.8966 23.6446 13.1007C23.9858 13.1502 24.212 13.2036 24.3233 13.2612C24.7609 13.4855 24.9524 14.0978 24.7268 14.5335C24.6722 14.6388 24.5285 14.8049 24.2956 15.0318C23.2776 16.0243 22.2595 17.0167 21.2411 18.0088C21.2252 18.0243 21.2192 18.043 21.2231 18.0649C21.462 19.47 21.7026 20.8725 21.945 22.2724C22.0021 22.6037 22.0161 22.8392 21.9869 22.9788C21.8889 23.4403 21.4016 23.78 20.9292 23.7175C20.8037 23.7011 20.619 23.6281 20.3749 23.4983C19.0923 22.8185 17.8079 22.1431 16.5219 21.4719Z" fill="#FF9100"/>
</g>
<defs>
<clipPath id="clip0_7_104">
<rect width="33" height="33" fill="white"/>
</clipPath>
</defs>
</svg>
