<svg width="109" height="109" viewBox="0 0 109 109" fill="none" xmlns="http://www.w3.org/2000/svg">
<path d="M105.581 54.5021C105.581 68.0508 100.199 81.0445 90.6185 90.6248C81.0381 100.205 68.0444 105.587 54.4958 105.587C40.9471 105.587 27.9534 100.205 18.373 90.6248C8.7927 81.0445 3.41052 68.0508 3.41052 54.5021C3.41052 40.9535 8.7927 27.9598 18.373 18.3794C27.9534 8.79908 40.9471 3.4169 54.4958 3.4169C68.0444 3.4169 81.0381 8.79908 90.6185 18.3794C100.199 27.9598 105.581 40.9535 105.581 54.5021ZM98.7706 54.4936C98.7706 48.6794 97.6254 42.922 95.4004 37.5504C93.1754 32.1787 89.9141 27.2979 85.8028 23.1866C81.6915 19.0753 76.8107 15.814 71.439 13.589C66.0673 11.364 60.31 10.2188 54.4958 10.2188C42.7533 10.2188 31.4918 14.8834 23.1887 23.1866C14.8856 31.4897 10.2209 42.7512 10.2209 54.4936C10.2209 66.236 14.8856 77.4975 23.1887 85.8007C31.4918 94.1038 42.7533 98.7685 54.4958 98.7685C60.31 98.7685 66.0673 97.6233 71.439 95.3983C76.8107 93.1732 81.6915 89.912 85.8028 85.8007C89.9141 81.6894 93.1754 76.8085 95.4004 71.4369C97.6254 66.0652 98.7706 60.3079 98.7706 54.4936Z" fill="#845E33"/>
<path d="M52.7229 27.7886L90.1661 51.6153C90.6514 51.9241 91.051 52.3504 91.3278 52.8546C91.6047 53.3588 91.7498 53.9248 91.7498 54.5C91.7498 55.0752 91.6047 55.6412 91.3278 56.1454C91.051 56.6497 90.6514 57.0759 90.1661 57.3847L52.7229 81.2114C52.206 81.5402 51.6103 81.7241 50.998 81.7438C50.3857 81.7636 49.7793 81.6185 49.2423 81.3236C48.7053 81.0288 48.2574 80.5951 47.9454 80.0679C47.6334 79.5407 47.4688 78.9393 47.4688 78.3267V68.5C65.2857 59.1567 77.0378 53.9598 47.4688 43.5V30.6733C47.4688 30.0607 47.6334 29.4593 47.9454 28.9321C48.2574 28.4049 48.7053 27.9712 49.2423 27.6764C49.7793 27.3816 50.3857 27.2364 50.998 27.2562C51.6103 27.2759 52.206 27.4598 52.7229 27.7886ZM54.3792 36.9195C54.3696 36.9134 54.3585 36.9101 54.3472 36.9097C54.3358 36.9093 54.3246 36.912 54.3146 36.9174C54.3046 36.9228 54.2963 36.9308 54.2904 36.9405C54.2846 36.9503 54.2814 36.9614 54.2813 36.9727V45.5C68.4811 52.7248 69.8947 56.7752 54.2813 64V66V72.0273C54.2814 72.0386 54.2846 72.0498 54.2904 72.0595C54.2963 72.0692 54.3046 72.0772 54.3146 72.0826C54.3246 72.088 54.3358 72.0907 54.3472 72.0903C54.3585 72.09 54.3696 72.0866 54.3792 72.0805L81.9208 54.5532C81.9296 54.5474 81.9368 54.5395 81.9418 54.5302C81.9468 54.5209 81.9494 54.5105 81.9494 54.5C81.9494 54.4895 81.9468 54.4791 81.9418 54.4698C81.9368 54.4605 81.9296 54.4526 81.9208 54.4468L54.3792 36.9195Z" fill="#845E33"/>
<path d="M33.7229 27.7886L71.1661 51.6153C71.6514 51.9241 72.051 52.3504 72.3278 52.8546C72.6047 53.3588 72.7498 53.9248 72.7498 54.5C72.7498 55.0752 72.6047 55.6412 72.3278 56.1454C72.051 56.6497 71.6514 57.0759 71.1661 57.3847L33.7229 81.2114C33.206 81.5402 32.6103 81.7241 31.998 81.7438C31.3857 81.7636 30.7793 81.6185 30.2423 81.3236C29.7053 81.0288 29.2574 80.5951 28.9454 80.0679C28.6334 79.5407 28.4688 78.9393 28.4688 78.3267V30.6733C28.4688 30.0607 28.6334 29.4593 28.9454 28.9321C29.2574 28.4049 29.7053 27.9712 30.2423 27.6764C30.7793 27.3816 31.3857 27.2364 31.998 27.2562C32.6103 27.2759 33.206 27.4598 33.7229 27.7886ZM35.3792 36.9195C35.3696 36.9134 35.3585 36.9101 35.3472 36.9097C35.3358 36.9093 35.3246 36.912 35.3146 36.9174C35.3046 36.9228 35.2963 36.9308 35.2904 36.9405C35.2846 36.9503 35.2814 36.9614 35.2813 36.9727V72.0273C35.2814 72.0386 35.2846 72.0498 35.2904 72.0595C35.2963 72.0692 35.3046 72.0772 35.3146 72.0826C35.3246 72.088 35.3358 72.0907 35.3472 72.0903C35.3585 72.09 35.3696 72.0866 35.3792 72.0805L62.9208 54.5532C62.9296 54.5474 62.9368 54.5395 62.9418 54.5302C62.9468 54.5209 62.9494 54.5105 62.9494 54.5C62.9494 54.4895 62.9468 54.4791 62.9418 54.4698C62.9368 54.4605 62.9296 54.4526 62.9208 54.4468L35.3792 36.9195Z" fill="#845E33"/>
</svg>
