<svg width="109" height="109" viewBox="0 0 109 109" fill="none" xmlns="http://www.w3.org/2000/svg">
<path d="M105.581 54.5021C105.581 68.0508 100.199 81.0445 90.6185 90.6248C81.0381 100.205 68.0444 105.587 54.4958 105.587C40.9471 105.587 27.9534 100.205 18.373 90.6248C8.7927 81.0445 3.41052 68.0508 3.41052 54.5021C3.41052 40.9535 8.7927 27.9598 18.373 18.3794C27.9534 8.79908 40.9471 3.4169 54.4958 3.4169C68.0444 3.4169 81.0381 8.79908 90.6185 18.3794C100.199 27.9598 105.581 40.9535 105.581 54.5021ZM98.7706 54.4936C98.7706 48.6794 97.6254 42.922 95.4004 37.5504C93.1754 32.1787 89.9141 27.2979 85.8028 23.1866C81.6915 19.0753 76.8107 15.814 71.439 13.589C66.0673 11.364 60.31 10.2188 54.4958 10.2188C42.7533 10.2188 31.4918 14.8834 23.1887 23.1866C14.8856 31.4897 10.2209 42.7512 10.2209 54.4936C10.2209 66.236 14.8856 77.4975 23.1887 85.8007C31.4918 94.1038 42.7533 98.7685 54.4958 98.7685C60.31 98.7685 66.0673 97.6233 71.439 95.3983C76.8107 93.1732 81.6915 89.912 85.8028 85.8007C89.9141 81.6894 93.1754 76.8085 95.4004 71.4369C97.6254 66.0652 98.7706 60.3079 98.7706 54.4936Z" fill="#845E33"/>
<path d="M102.5 45.5L101.5 46.5969C101.365 47.4303 97.4877 49.6657 96.8696 50.0556C94.5696 51.5046 92.2745 52.9502 89.9846 54.3925C89.9758 54.3978 89.9685 54.4052 89.9634 54.4141C89.9583 54.4229 89.9555 54.4329 89.9554 54.4432C89.9552 54.4534 89.9576 54.4635 89.9625 54.4725C89.9673 54.4815 89.9743 54.4892 89.9829 54.4947C90.8149 55.0645 91.6318 55.6504 92.4335 56.2526C94.5012 57.806 95.63 60.2208 95.4016 62.7713C95.2773 64.1588 94.8092 65.3983 93.9973 66.4898C92.5618 68.4203 90.5523 69.4224 87.9689 69.4961C87.913 69.4972 87.8805 69.5252 87.8715 69.5799C87.4035 72.4052 85.8794 74.3664 83.2994 75.4635C82.7199 75.7098 82.1186 75.8187 81.5156 75.9428C81.4518 75.9562 81.417 75.9958 81.4114 76.0617C81.3946 76.2796 81.3767 76.4935 81.3577 76.7035C81.1612 78.9658 79.8191 81.0169 77.8488 82.2134C76.3214 83.1396 74.5986 83.4552 72.6804 83.1602C72.6667 83.1582 72.6528 83.161 72.6411 83.1681C72.6294 83.1751 72.6207 83.186 72.6166 83.1988C72.4184 83.8037 72.2655 84.4371 71.9682 85.0018C69.8468 89.0304 64.7623 90.2336 61.0385 87.6009C57.6836 85.2281 54.374 82.8787 51.1098 80.5528C51.046 80.5081 50.9911 80.517 50.9452 80.5796C49.1832 83.0094 46.2723 84.1255 43.3564 83.3613C40.8822 82.7145 38.9405 80.7673 38.3257 78.2771C38.3078 78.2034 38.2608 78.1682 38.1847 78.1715C36.8622 78.214 35.6517 77.9336 34.5532 77.3303C32.7716 76.3528 31.6048 74.858 31.0527 72.846C31.0461 72.8215 31.0315 72.7999 31.0112 72.7845C30.9908 72.769 30.9659 72.7606 30.9402 72.7605C28.2751 72.7661 26.1995 71.6919 24.7136 69.538C24.3664 69.0342 24.0618 68.3264 23.7998 67.4148C23.783 67.3567 23.7438 67.3277 23.6822 67.3277C21.427 67.3456 19.5844 66.5674 18.1544 64.9934C16.6695 63.3578 16.043 61.1307 16.473 58.9321C16.5962 58.3032 16.7703 57.7692 16.9954 57.3301C17.4478 56.4442 18.0575 55.5471 18.8246 54.6388C18.8341 54.6277 18.841 54.6146 18.845 54.6005C18.849 54.5865 18.8499 54.5717 18.8477 54.5573C18.8454 54.5428 18.8401 54.529 18.8321 54.5168C18.824 54.5045 18.8135 54.4942 18.8011 54.4863C16.9512 53.3077 15.0906 52.1202 13.2195 50.9237C8.63826 47.8252 5.99996 45.9733 8.99999 47C12 48.0267 5.74831 42.7224 9.49999 45C9.58397 44.5811 4.10688 37.4616 7.99996 39C11.893 40.5383 9.71221 26.6296 22.4279 21.612C23.5001 19.5 23.2026 20.2463 29.5931 24.3311C32.5258 26.2057 35.5375 28.1306 38.6281 30.1057C38.6818 30.1392 38.7367 30.1409 38.7927 30.1108C44.1083 27.1726 49.4217 24.2411 54.7329 21.3164C55.5677 20.8572 56.2379 20.9561 57.2155 21.2443C61.5032 22.509 65.951 23.8222 70.5589 25.184C70.611 25.1992 70.6663 25.1956 70.7152 25.174C73.6949 23.8624 76.6753 22.5548 79.6562 21.251C80.8353 20.7366 79.6562 21.251 84.5 19C93.1346 14.9873 97.1267 35.4586 102 43.5C102.186 43.8061 102.42 45.0799 102.5 45.5ZM71.3383 30.3152C70.9027 30.409 70.4794 30.3962 70.0685 30.2767C65.5367 28.9506 60.9774 27.6027 56.3908 26.2331C56.3191 26.2118 56.2508 26.2197 56.1858 26.2565L34.4322 38.2617C34.3819 38.2896 34.3628 38.332 34.3751 38.389C35.0823 41.645 38.6818 43.3074 41.6498 41.836C45.9599 39.6989 50.0029 37.6858 53.7789 35.7966C54.201 35.5866 54.6361 35.4838 55.084 35.4883C56.7424 35.5073 59.0464 35.5425 61.9959 35.5939C62.7433 35.6073 63.301 35.7212 63.8738 36.1234C71.064 41.1741 78.2452 46.2181 85.4175 51.2555C85.4319 51.2659 85.4489 51.2717 85.4663 51.2723C85.4837 51.2729 85.5007 51.2682 85.5149 51.2588L92.0035 47.175C92.0152 47.1679 96.8696 44.1843 92.0266 47.1429C96.8696 44.1843 99.5072 42.5121 99.5 42.5L88.8088 22.3045C88.8088 22.3045 92.003 19.4681 88 21.5C92.6148 19.1575 90.9641 21.6793 85.4454 24.2825C82.8418 25.422 74.6327 28.945 72.4671 29.8979C71.952 30.1247 71.5757 30.2638 71.3383 30.3152ZM41.7893 47.1147C37.1634 48.2291 32.5056 46.0891 30.3288 41.9081C29.6155 40.5384 29.2487 39.0113 29.2286 37.3266C29.2151 36.1033 29.5645 35.2051 30.6445 34.6051C31.6389 34.0521 32.6238 33.5086 33.5991 32.9746C33.609 32.9691 33.6174 32.9612 33.6233 32.9515C33.6292 32.9418 33.6325 32.9308 33.6328 32.9194C33.6331 32.9081 33.6305 32.8969 33.6252 32.8869C33.6199 32.8769 33.6121 32.8684 33.6025 32.8624L24.2701 26.4938C20 23.5 18.6701 22.6155 20 23.5C18.2268 22.6155 18.1733 18.0062 22.5001 22C21.8358 21.6905 19.5388 22.9947 19.5316 23C19.3913 22.9637 22.7211 22.1337 22.5001 22C16.1662 15.5151 10.5001 34.6052 10.5001 43C10.4888 43.0196 17.975 47.9516 17.98 47.9731C17.985 47.9947 17.9982 48.0132 18.0167 48.0246L21.9622 50.5383C22.0126 50.5695 22.0608 50.5673 22.1067 50.5316C24.1391 48.9496 26.3367 48.5005 28.6995 49.1842C30.2918 49.6434 31.6843 50.6924 32.5728 52.0816C32.5926 52.1125 32.6234 52.1347 32.6589 52.1437C32.6945 52.1527 32.7322 52.1479 32.7643 52.1302C36.4512 50.0791 40.9444 51.5806 42.698 55.3762C42.7248 55.4332 42.7696 55.4572 42.8323 55.4482C43.0104 55.4225 43.1957 55.3946 43.3883 55.3644C48.9951 54.4729 53.3841 60.1923 50.8478 65.4022C50.7997 65.5017 50.8276 65.5704 50.9318 65.6084C51.5264 65.8262 52.0594 66.1094 52.5308 66.458C54.1769 67.6757 55.1394 69.2771 55.4182 71.2624C55.6668 73.047 55.1797 74.8887 54.103 76.3449C54.0922 76.3591 54.0844 76.3753 54.0801 76.3925C54.0757 76.4098 54.0749 76.4278 54.0778 76.4455C54.0806 76.4632 54.087 76.4802 54.0965 76.4954C54.106 76.5107 54.1185 76.5239 54.1333 76.5343C57.2608 78.7563 60.5362 81.0812 63.9594 83.5088C65.3637 84.5042 67.2903 83.8473 67.6615 82.1598C67.8496 81.3002 67.5019 80.3383 66.7679 79.8104C65.5361 78.9256 64.2965 78.0481 63.0491 77.1778C62.5619 76.8371 62.2187 76.4997 62.0194 76.1656C60.8806 74.2519 62.661 71.8707 64.8127 72.4672C65.1778 72.5689 65.6251 72.8102 66.1548 73.1912C68.3182 74.7474 70.4778 76.2813 72.6334 77.7928C73.8881 78.6742 75.6417 78.2419 76.2078 76.7723C76.4956 76.0271 76.4177 75.3261 75.9743 74.6692C75.7951 74.4044 75.4536 74.0927 74.9497 73.7341C72.5377 72.0204 70.097 70.2938 67.6279 68.5543C66.0792 67.4634 66.2086 65.1643 67.858 64.2728C68.8591 63.7315 69.84 63.9393 70.7303 64.5761C73.5174 66.5669 76.3377 68.5655 79.1909 70.572C81.1729 71.9645 83.7765 69.7358 82.5805 67.5723C82.3935 67.2338 82.0503 66.8892 81.5509 66.5384C78.3953 64.3219 75.14 62.0161 71.7851 59.6209C70.1441 58.4512 70.4766 56.075 72.2353 55.2689C72.9777 54.9304 73.9486 55.0125 74.6087 55.475C78.4966 58.2032 82.4125 60.9793 86.3564 63.8036C86.7764 64.1041 87.1386 64.2951 87.4432 64.3767C89.4219 64.9079 91.0814 62.8718 90.1206 61.0285C89.9527 60.7079 89.5154 60.299 88.8088 59.8019C79.9759 53.5915 70.9139 47.2214 61.623 40.6915C61.5424 40.6356 61.4533 40.6072 61.3559 40.606C59.6135 40.5859 57.7916 40.5597 55.8902 40.5273C55.6887 40.5239 55.5028 40.5641 55.3326 40.6479C51.5398 42.5259 48.0394 44.2726 44.8312 45.888C43.5748 46.5203 42.5608 46.9292 41.7893 47.1147ZM28.3044 57.0741C28.6143 56.6638 28.7482 56.1475 28.6765 55.6387C28.6048 55.1299 28.3335 54.6704 27.9222 54.3612L27.8203 54.2846C27.409 53.9754 26.8914 53.8418 26.3815 53.9133C25.8715 53.9848 25.4109 54.2555 25.101 54.6658L21.7409 59.1144C21.431 59.5247 21.2971 60.0411 21.3688 60.5498C21.4405 61.0586 21.7118 61.5181 22.123 61.8273L22.225 61.904C22.6363 62.2132 23.1538 62.3467 23.6638 62.2752C24.1737 62.2037 24.6343 61.933 24.9443 61.5227L28.3044 57.0741ZM37.8821 59.4278C38.0375 59.222 38.1508 58.9877 38.2155 58.7382C38.2801 58.4887 38.2949 58.229 38.259 57.9738C38.223 57.7186 38.1371 57.473 38.006 57.2509C37.8749 57.0289 37.7012 56.8348 37.4949 56.6797L37.4252 56.6273C37.2189 56.4722 36.984 56.3591 36.7339 56.2946C36.4839 56.2301 36.2235 56.2153 35.9677 56.2512C35.7119 56.2871 35.4657 56.3729 35.2432 56.5036C35.0206 56.6344 34.8261 56.8077 34.6706 57.0135L29.0037 64.5161C28.8483 64.7219 28.735 64.9562 28.6703 65.2057C28.6056 65.4552 28.5909 65.715 28.6268 65.9701C28.6628 66.2253 28.7487 66.471 28.8798 66.693C29.0109 66.915 29.1846 67.1091 29.3909 67.2642L29.4606 67.3167C29.6669 67.4717 29.9018 67.5848 30.1519 67.6493C30.4019 67.7138 30.6623 67.7286 30.9181 67.6927C31.1739 67.6568 31.4201 67.5711 31.6426 67.4403C31.8652 67.3095 32.0597 67.1363 32.2152 66.9304L37.8821 59.4278ZM46.1635 63.4817C46.3189 63.2753 46.4319 63.0404 46.4963 62.7903C46.5606 62.5403 46.575 62.2801 46.5385 62.0245C46.5021 61.769 46.4155 61.5231 46.2838 61.3009C46.1521 61.0787 45.9778 60.8846 45.7709 60.7296L45.7064 60.6813C45.2886 60.3683 44.7632 60.2337 44.2458 60.3072C43.7285 60.3806 43.2616 60.6561 42.9478 61.073L36.2695 69.947C36.1141 70.1534 36.001 70.3883 35.9367 70.6384C35.8723 70.8884 35.858 71.1486 35.8944 71.4042C35.9309 71.6597 36.0174 71.9056 36.1491 72.1278C36.2809 72.35 36.4551 72.5441 36.662 72.6991L36.7265 72.7474C37.1444 73.0604 37.6698 73.195 38.1871 73.1216C38.7045 73.0481 39.1714 72.7726 39.4851 72.3557L46.1635 63.4817ZM50.0786 73.3638C50.2325 73.1608 50.3449 72.9294 50.4092 72.683C50.4735 72.4366 50.4886 72.18 50.4535 71.9278C50.4184 71.6756 50.3339 71.4328 50.2048 71.2132C50.0756 70.9936 49.9044 70.8015 49.7008 70.6479L49.6017 70.5731C49.1906 70.2629 48.6728 70.1284 48.1623 70.1991C47.6518 70.2697 47.1903 70.5398 46.8794 70.95L43.5176 75.3847C43.3636 75.5877 43.2513 75.8191 43.187 76.0655C43.1226 76.3119 43.1076 76.5685 43.1426 76.8207C43.1777 77.0729 43.2622 77.3157 43.3914 77.5353C43.5205 77.7549 43.6918 77.947 43.8953 78.1006L43.9945 78.1754C44.4056 78.4856 44.9233 78.6201 45.4339 78.5494C45.9444 78.4788 46.4059 78.2087 46.7168 77.7985L50.0786 73.3638Z" fill="#845E33"/>
</svg>
