<svg width="14" height="14" viewBox="0 0 14 14" fill="none" xmlns="http://www.w3.org/2000/svg">
<g clip-path="url(#clip0_21_201)">
<path d="M10.9126 0H11.1223C11.3136 0.0207812 11.4874 0.0772005 11.6438 0.169258C11.7351 0.222852 11.8706 0.339427 12.0501 0.518984C12.545 1.01336 13.0396 1.50801 13.5338 2.00293C13.6696 2.13874 13.7623 2.24629 13.8119 2.32559C14.0593 2.7207 14.0528 3.25172 13.8078 3.63508C13.7538 3.71948 13.6332 3.85556 13.446 4.04332C13.2182 4.27173 12.9907 4.50014 12.7638 4.72855C12.7629 4.72949 12.7619 4.73023 12.7607 4.73074C12.7595 4.73125 12.7582 4.73151 12.7569 4.73151C12.7556 4.73151 12.7543 4.73125 12.7531 4.73074C12.7519 4.73023 12.7508 4.72949 12.7498 4.72855L9.2709 1.24934C9.26981 1.24827 9.26894 1.24699 9.26835 1.24558C9.26776 1.24417 9.26746 1.24266 9.26746 1.24113C9.26746 1.2396 9.26776 1.23809 9.26835 1.23668C9.26894 1.23528 9.26981 1.234 9.2709 1.23293C9.55254 0.950924 9.83464 0.667552 10.1172 0.382812C10.3352 0.163151 10.6004 0.0355469 10.9126 0Z" fill="#845E33"/>
<path d="M12.1917 5.29032L8.70834 1.80694C8.70492 1.80352 8.69938 1.80352 8.69596 1.80694L1.56717 8.93573C1.56375 8.93915 1.56375 8.94469 1.56717 8.94811L5.05055 12.4315C5.05397 12.4349 5.05951 12.4349 5.06292 12.4315L12.1917 5.3027C12.1951 5.29928 12.1951 5.29374 12.1917 5.29032Z" fill="#845E33"/>
<path d="M0.477969 14H0.360937C0.162969 13.9544 0.0426562 13.8336 0 13.6374V13.5144L1.10961 9.63485C1.11344 9.62191 1.12009 9.62027 1.12957 9.62993L4.37719 12.8775C4.37825 12.8786 4.37901 12.8799 4.3794 12.8814C4.37979 12.8828 4.37979 12.8843 4.3794 12.8858C4.37901 12.8872 4.37825 12.8885 4.37719 12.8896C4.37613 12.8906 4.37481 12.8914 4.37336 12.8918L0.477969 14Z" fill="#845E33"/>
</g>
<defs>
<clipPath id="clip0_21_201">
<rect width="14" height="14" fill="white"/>
</clipPath>
</defs>
</svg>
