<svg width="109" height="109" viewBox="0 0 109 109" fill="none" xmlns="http://www.w3.org/2000/svg">
<path d="M105.581 54.5021C105.581 68.0508 100.199 81.0445 90.6185 90.6248C81.0381 100.205 68.0444 105.587 54.4958 105.587C40.9471 105.587 27.9534 100.205 18.373 90.6248C8.7927 81.0445 3.41052 68.0508 3.41052 54.5021C3.41052 40.9535 8.7927 27.9598 18.373 18.3794C27.9534 8.79908 40.9471 3.4169 54.4958 3.4169C68.0444 3.4169 81.0381 8.79908 90.6185 18.3794C100.199 27.9598 105.581 40.9535 105.581 54.5021ZM98.7706 54.4936C98.7706 48.6794 97.6254 42.922 95.4004 37.5504C93.1754 32.1787 89.9141 27.2979 85.8028 23.1866C81.6915 19.0753 76.8107 15.814 71.439 13.589C66.0673 11.364 60.31 10.2188 54.4958 10.2188C42.7533 10.2188 31.4918 14.8834 23.1887 23.1866C14.8856 31.4897 10.2209 42.7512 10.2209 54.4936C10.2209 66.236 14.8856 77.4975 23.1887 85.8007C31.4918 94.1038 42.7533 98.7685 54.4958 98.7685C60.31 98.7685 66.0673 97.6233 71.439 95.3983C76.8107 93.1732 81.6915 89.912 85.8028 85.8007C89.9141 81.6894 93.1754 76.8085 95.4004 71.4369C97.6254 66.0652 98.7706 60.3079 98.7706 54.4936Z" fill="#845E33"/>
<path d="M42.7229 27.7886L80.1661 51.6153C80.6514 51.9241 81.051 52.3504 81.3278 52.8546C81.6047 53.3588 81.7498 53.9248 81.7498 54.5C81.7498 55.0752 81.6047 55.6412 81.3278 56.1454C81.051 56.6497 80.6514 57.0759 80.1661 57.3847L42.7229 81.2114C42.206 81.5402 41.6103 81.7241 40.998 81.7438C40.3857 81.7636 39.7793 81.6185 39.2423 81.3236C38.7053 81.0288 38.2574 80.5951 37.9454 80.0679C37.6334 79.5407 37.4688 78.9393 37.4688 78.3267V30.6733C37.4688 30.0607 37.6334 29.4593 37.9454 28.9321C38.2574 28.4049 38.7053 27.9712 39.2423 27.6764C39.7793 27.3816 40.3857 27.2364 40.998 27.2562C41.6103 27.2759 42.206 27.4598 42.7229 27.7886ZM44.3792 36.9195C44.3696 36.9134 44.3585 36.9101 44.3472 36.9097C44.3358 36.9093 44.3246 36.912 44.3146 36.9174C44.3046 36.9228 44.2963 36.9308 44.2904 36.9405C44.2846 36.9503 44.2814 36.9614 44.2813 36.9727V72.0273C44.2814 72.0386 44.2846 72.0498 44.2904 72.0595C44.2963 72.0692 44.3046 72.0772 44.3146 72.0826C44.3246 72.088 44.3358 72.0907 44.3472 72.0903C44.3585 72.09 44.3696 72.0866 44.3792 72.0805L71.9208 54.5532C71.9296 54.5474 71.9368 54.5395 71.9418 54.5302C71.9468 54.5209 71.9494 54.5105 71.9494 54.5C71.9494 54.4895 71.9468 54.4791 71.9418 54.4698C71.9368 54.4605 71.9296 54.4526 71.9208 54.4468L44.3792 36.9195Z" fill="#845E33"/>
</svg>
