<svg width="116" height="116" viewBox="0 0 116 116" fill="none" xmlns="http://www.w3.org/2000/svg">
<path d="M108.745 57.9977C108.745 64.6617 107.433 71.2604 104.883 77.4172C102.332 83.5739 98.5946 89.168 93.8825 93.8802C89.1703 98.5923 83.5762 102.33 77.4194 104.88C71.2627 107.431 64.664 108.743 58 108.743C44.5415 108.743 31.6341 103.397 22.1175 93.8802C12.6009 84.3636 7.25452 71.4563 7.25452 57.9977C7.25452 44.5392 12.6009 31.6319 22.1175 22.1153C31.6341 12.5986 44.5415 7.25226 58 7.25226C64.664 7.25226 71.2627 8.56483 77.4194 11.115C83.5762 13.6652 89.1703 17.4031 93.8825 22.1153C98.5946 26.8274 102.332 32.4216 104.883 38.5783C107.433 44.735 108.745 51.3337 108.745 57.9977ZM101.495 57.9977C101.495 46.462 96.9129 35.3988 88.7559 27.2418C80.5989 19.0848 69.5357 14.5023 58 14.5023C46.4643 14.5023 35.401 19.0848 27.244 27.2418C19.0871 35.3988 14.5045 46.462 14.5045 57.9977C14.5045 69.5334 19.0871 80.5967 27.244 88.7537C35.401 96.9106 46.4643 101.493 58 101.493C63.7119 101.493 69.3679 100.368 74.645 98.1823C79.9221 95.9964 84.717 92.7926 88.7559 88.7537C92.7949 84.7147 95.9987 79.9198 98.1846 74.6427C100.37 69.3656 101.495 63.7096 101.495 57.9977Z" fill="#845E33"/>
<path d="M79.7931 54.3773H36.207C34.2375 54.3773 32.6409 55.9739 32.6409 57.9434V58.0566C32.6409 60.0261 34.2375 61.6227 36.207 61.6227H79.7931C81.7626 61.6227 83.3591 60.0261 83.3591 58.0566V57.9434C83.3591 55.9739 81.7626 54.3773 79.7931 54.3773Z" fill="#845E33"/>
<path d="M61.6228 36.2069V79.793C61.6228 81.7625 60.0262 83.3591 58.0567 83.3591H57.9434C55.9739 83.3591 54.3773 81.7625 54.3773 79.793V36.2069C54.3773 34.2374 55.9739 32.6409 57.9434 32.6409H58.0567C60.0262 32.6409 61.6228 34.2374 61.6228 36.2069Z" fill="#845E33"/>
</svg>
