<svg width="103" height="103" viewBox="0 0 103 103" fill="none" xmlns="http://www.w3.org/2000/svg">
<path d="M102.17 51.0852C102.17 64.6339 96.7883 77.6276 87.2079 87.2079C77.6276 96.7883 64.6339 102.17 51.0852 102.17C37.5366 102.17 24.5429 96.7883 14.9625 87.2079C5.38218 77.6276 0 64.6339 0 51.0852C0 37.5366 5.38218 24.5429 14.9625 14.9625C24.5429 5.38218 37.5366 0 51.0852 0C64.6339 0 77.6276 5.38218 87.2079 14.9625C96.7883 24.5429 102.17 37.5366 102.17 51.0852ZM95.3601 51.0767C95.3601 45.2625 94.2149 39.5051 91.9899 34.1335C89.7649 28.7618 86.5036 23.881 82.3923 19.7697C78.281 15.6584 73.4002 12.3971 68.0285 10.1721C62.6568 7.94706 56.8995 6.80186 51.0852 6.80186C39.3428 6.80186 28.0813 11.4665 19.7782 19.7697C11.475 28.0728 6.81037 39.3343 6.81037 51.0767C6.81037 62.8191 11.475 74.0806 19.7782 82.3838C28.0813 90.6869 39.3428 95.3516 51.0852 95.3516C56.8995 95.3516 62.6568 94.2064 68.0285 91.9814C73.4002 89.7563 78.281 86.4951 82.3923 82.3838C86.5036 78.2725 89.7649 73.3916 91.9899 68.02C94.2149 62.6483 95.3601 56.891 95.3601 51.0767Z" fill="#845E33"/>
<path fill-rule="evenodd" clip-rule="evenodd" d="M40.7955 4.44699C35.0015 5.09625 33.7292 5.40456 28.5065 7.99998C23.0316 10.7207 19.2522 13.2038 14.9477 17.5C7.47181 24.9613 5.97423 38.995 4.11412 49.3419C3.12679 54.8349 3.51287 55.4383 4.5 60.9362C5.59212 67.0169 7.34695 74.4048 10.5 79.3675C14.6399 85.884 24.6531 89.3648 31 93.2301C36.3191 96.4692 45.4256 98.4059 51.5119 99.5C57.005 100.487 57.0022 99.4871 62.5 98.5C68.5808 97.4079 72.5373 95.153 77.5 92C84.0164 87.86 89.1348 81.7197 93 75.3728C96.835 69.0753 98.4611 65.4617 99 59C99.0713 58.1444 98.9066 55.5578 99 55.5C99.0936 55.442 99.5 53.301 99.5 51C99.5 48.699 96.9537 43.8321 99.5 47C96.9537 49.6739 98.5707 43.8491 98.5 43C97.9595 36.5196 95.7752 31.62 92 25.6781C88.8888 20.7809 86.3125 16.7166 82 13.5C74.3647 7.80511 67.443 5.45007 58.1584 4.44701C55.9246 4.20575 42.9857 4.20155 40.7955 4.44699ZM48.0067 2.99998C41.3266 3.43149 34.3769 6.73993 28.5065 10.2886C23.3274 13.4191 18.5324 18.4026 14.9477 23.8747C12.6856 27.3282 5.47377 36.0954 4.49998 40.3103C3.03672 46.6428 5.03672 58.5107 6.49998 64.8433C8.95257 75.4581 14.7515 83.7298 24.3229 90C27.7764 92.2621 36.5807 95.5262 40.7955 96.5C47.1281 97.9632 56.6674 97.9632 63 96.5C73.6148 94.0474 82.7298 88.939 89 79.3675C91.2621 75.9141 95.5262 66.7148 96.5 62.5C97.9632 56.1674 97.9632 48.3362 96.5 42.0036C94.0474 31.3889 87.6835 19.7702 78.112 13.5C74.6599 11.2386 71.065 7.47675 66.8452 6.49998C62.8739 5.58079 52.1799 2.73044 48.0067 2.99998ZM48.4611 25.6781C42.4891 26.7481 37.6586 30.9448 35.7467 36.7243C35.3067 38.0543 35.2162 38.6992 35.1999 40.6217C35.1811 42.829 35.2037 42.9605 35.741 43.7743C36.381 44.7439 37.926 45.5856 39.0651 45.5856C39.4486 45.5856 40.2274 45.3692 40.7955 45.1047C42.2905 44.4086 42.8166 43.5161 43.1752 41.0679C43.3479 39.8875 43.6621 38.6998 43.9689 38.0655C44.694 36.5672 46.1709 35.1358 47.776 34.3753C49.0006 33.7954 49.3012 33.7361 51.0182 33.7361C52.7353 33.7361 53.0359 33.7954 54.2605 34.3753C56.6914 35.5268 58.4105 37.8041 58.7408 40.3103C59.3573 44.9905 56.3011 48.8089 51.5119 49.3419C49.5313 49.5622 48.4081 50.109 47.6815 51.2069L47.1335 52.0351V58.4392V64.8433L47.6941 65.6905C48.3344 66.6578 49.8811 67.4997 51.0182 67.4997C52.1546 67.4997 53.7021 66.6578 54.3424 65.6913C54.9028 64.8451 54.903 64.8433 54.964 60.9362L55.0251 57.0277L56.4304 56.5494C60.0257 55.3254 63.219 52.5435 65.1325 48.9687C66.5473 46.3259 66.8577 44.9547 66.8452 41.406C66.8352 38.5984 66.7856 38.1735 66.2985 36.7243C64.5332 31.4743 60.4287 27.533 55.2018 26.0683C53.4782 25.5852 50.0777 25.3884 48.4611 25.6781ZM0.102905 50.9685C0.102905 53.3242 0.131593 54.2881 0.166855 53.1101C0.202116 51.9321 0.202116 50.0047 0.166855 48.8269C0.131593 47.6491 0.102905 48.6127 0.102905 50.9685ZM49.5823 70.5571C45.6796 71.7918 44.7508 76.9851 48.0067 79.3675C51.378 81.8342 55.9987 79.5247 55.9987 75.3728C55.9987 71.9986 52.7449 69.5564 49.5823 70.5571Z" fill="#845E33"/>
</svg>
