<svg width="102" height="102" viewBox="0 0 102 102" fill="none" xmlns="http://www.w3.org/2000/svg">
<g clip-path="url(#clip0_181_16)">
<path fill-rule="evenodd" clip-rule="evenodd" d="M45.4401 0.18764C39.6461 0.836893 33.7293 2.57966 28.5065 5.17508C23.0316 7.89581 19.2522 10.6076 14.9477 14.9037C7.47182 22.3651 2.60073 31.6568 0.740621 42.0037C-0.246708 47.4967 -0.246907 54.4355 0.740222 59.9333C1.83234 66.0141 4.55566 73.0995 7.7087 78.0623C11.8487 84.5787 17.976 90.6445 24.3229 94.5098C29.6421 97.7488 35.9671 100.152 42.0534 101.246C47.5465 102.233 54.4853 102.234 59.9831 101.247C66.0639 100.154 73.1493 97.4311 78.112 94.2781C84.6285 90.1381 90.6943 84.0107 94.5595 77.6638C98.3945 71.3663 101.209 63.1569 101.748 56.6952C101.819 55.8396 101.954 55.0923 102.047 55.0346C102.141 54.9766 102.217 53.0467 102.217 50.7458C102.217 48.4448 102.141 46.6098 102.046 46.668C101.952 46.7259 101.817 46.0789 101.747 45.2298C101.206 38.7494 98.103 29.8166 94.3278 23.8747C91.2166 18.9776 86.2097 13.5052 81.8972 10.2886C74.2619 4.59376 65.6397 1.18055 56.3551 0.177479C54.1213 -0.0637745 47.6303 -0.057798 45.4401 0.18764ZM48.03 8.14424C41.35 8.57575 34.5873 10.7203 28.7169 14.269C23.5378 17.3995 18.3514 22.491 14.7666 27.9631C12.5045 31.4166 10.1936 36.8923 9.21977 41.1072C7.75651 47.4397 7.75651 54.4973 9.21977 60.8298C11.6724 71.4446 18.4414 80.9499 28.0129 87.2201C31.4663 89.4823 36.9421 91.7932 41.1569 92.767C47.4895 94.2302 54.547 94.2302 60.8796 92.767C71.4944 90.3144 80.9997 83.5453 87.2699 73.9739C89.532 70.5204 91.843 65.0447 92.8167 60.8298C94.28 54.4973 94.28 47.4397 92.8167 41.1072C90.3642 30.4924 83.5951 20.9871 74.0236 14.7169C70.5716 12.4555 65.0994 10.146 60.8796 9.16922C56.9084 8.25002 52.2032 7.87469 48.03 8.14424ZM48.4611 25.6781C42.4891 26.7481 37.6586 30.9448 35.7467 36.7244C35.3067 38.0543 35.2162 38.6992 35.1999 40.6217C35.1812 42.829 35.2037 42.9605 35.741 43.7743C36.3811 44.7439 37.926 45.5856 39.0651 45.5856C39.4486 45.5856 40.2274 45.3693 40.7955 45.1047C42.2905 44.4086 42.8166 43.5161 43.1752 41.0679C43.3479 39.8876 43.6621 38.6998 43.9689 38.0655C44.6941 36.5672 46.1709 35.1358 47.776 34.3754C49.0006 33.7954 49.3012 33.7361 51.0183 33.7361C52.7353 33.7361 53.0359 33.7954 54.2605 34.3754C56.6914 35.5269 58.4105 37.8041 58.7408 40.3103C59.3574 44.9905 56.3011 48.809 51.5119 49.3419C49.5313 49.5622 48.4081 50.1091 47.6815 51.207L47.1335 52.0351V58.4392V64.8433L47.6941 65.6906C48.3344 66.6578 49.8811 67.4997 51.0183 67.4997C52.1546 67.4997 53.7021 66.6578 54.3424 65.6914C54.9028 64.8451 54.903 64.8433 54.964 60.9362L55.0251 57.0277L56.4304 56.5494C60.0257 55.3254 63.219 52.5435 65.1325 48.9687C66.5474 46.3259 66.8577 44.9547 66.8452 41.406C66.8352 38.5984 66.7856 38.1735 66.2985 36.7244C64.5333 31.4743 60.4288 27.533 55.2018 26.0683C53.4782 25.5852 50.0777 25.3884 48.4611 25.6781ZM0.102921 50.9685C0.102921 53.3243 0.131609 54.2881 0.166871 53.1101C0.202132 51.9321 0.202132 50.0047 0.166871 48.8269C0.131609 47.6491 0.102921 48.6127 0.102921 50.9685ZM49.5823 70.5571C45.6796 71.7918 44.7508 76.9851 48.0067 79.3675C51.378 81.8343 55.9987 79.5247 55.9987 75.3728C55.9987 71.9986 52.7449 69.5564 49.5823 70.5571Z" fill="#845E33"/>
</g>
<defs>
<clipPath id="clip0_181_16">
<rect width="102" height="102" fill="white"/>
</clipPath>
</defs>
</svg>
