<svg width="49" height="49" viewBox="0 0 49 49" fill="none" xmlns="http://www.w3.org/2000/svg">
<path d="M22.072 1H26.9335C28.1434 1.18053 28.9595 1.77783 29.3818 2.79188C29.5042 3.08563 29.6064 3.56725 29.6884 4.23676C29.8095 5.23 29.9362 6.22385 30.0684 7.21832C30.0703 7.23157 30.0758 7.24398 30.0843 7.25419C30.0927 7.2644 30.1037 7.272 30.1161 7.27615C31.0182 7.5699 31.8918 7.93158 32.7369 8.36119C32.7449 8.36529 32.7539 8.36696 32.7629 8.36598C32.7718 8.365 32.7804 8.36142 32.7874 8.35568C33.6589 7.67883 34.527 7.00443 35.3917 6.33248C35.795 6.01854 36.1334 5.80679 36.407 5.69725C37.2717 5.35087 38.1018 5.39952 38.8974 5.8432C39.1722 5.9962 39.5305 6.29515 39.9724 6.74006C40.8151 7.58643 41.659 8.43249 42.5041 9.27824C43.4322 10.2054 43.8104 11.3106 43.3083 12.5793C43.2012 12.851 42.9903 13.1897 42.6758 13.5955C42.0051 14.4614 41.3319 15.3289 40.6563 16.1979C40.6354 16.2248 40.6327 16.2536 40.648 16.2842C41.0745 17.122 41.4332 17.9876 41.7239 18.8811C41.733 18.9099 41.7526 18.9261 41.7826 18.9298C42.8915 19.0705 43.9998 19.2119 45.1075 19.3539C45.5909 19.4163 45.9639 19.505 46.2265 19.6201C47.2405 20.0644 47.8317 20.8826 48 22.0747V26.9372C47.8164 28.1434 47.2197 28.958 46.21 29.3808C45.9156 29.5039 45.4331 29.6067 44.7623 29.6893C43.7691 29.8117 42.7752 29.9384 41.7808 30.0693C41.7514 30.0736 41.7321 30.0895 41.7229 30.1171C41.4304 31.0112 41.0718 31.8777 40.6471 32.7167C40.6324 32.7449 40.6348 32.7715 40.6544 32.7966C41.2774 33.6001 41.9004 34.4009 42.5234 35.1989C42.9261 35.7154 43.1874 36.1218 43.3073 36.418C43.8168 37.6747 43.4239 38.8029 42.4959 39.7291C41.5516 40.6715 40.6104 41.6161 39.6722 42.5629C38.6887 43.5549 37.5826 43.7923 36.3537 43.2752C36.0814 43.1602 35.7531 42.9518 35.3687 42.6501C34.5126 41.9781 33.6543 41.3114 32.7938 40.6498C32.784 40.6422 32.7721 40.6375 32.7598 40.6363C32.7474 40.6352 32.735 40.6376 32.7241 40.6434C31.8863 41.0699 31.02 41.4286 30.1253 41.7193C30.1108 41.7239 30.0979 41.7325 30.0881 41.7443C30.0784 41.756 30.0721 41.7702 30.0702 41.7854C29.9472 42.7021 29.8306 43.6176 29.7205 44.5319C29.622 45.3422 29.5097 45.9006 29.3836 46.2072C28.9644 47.2243 28.1397 47.8219 26.9097 48H22.0793C20.8762 47.8299 20.0552 47.2332 19.6164 46.21C19.5014 45.9419 19.412 45.5515 19.3484 45.0386C19.2137 43.9554 19.0751 42.8716 18.9325 41.7872C18.9282 41.7541 18.9102 41.7321 18.8784 41.7211C17.9849 41.428 17.1189 41.0693 16.2805 40.6452C16.2536 40.6318 16.2282 40.6342 16.2043 40.6526C15.3237 41.3398 14.4415 42.0252 13.5578 42.7088C13.1796 43.0007 12.8565 43.1996 12.5884 43.3055C11.7188 43.6476 10.8887 43.5968 10.098 43.1531C9.82505 43.0001 9.46245 42.6957 9.0102 42.2397C8.24828 41.4711 7.483 40.7058 6.71436 39.9439C6.28352 39.5167 5.99344 39.1698 5.84412 38.9029C5.40227 38.1123 5.35301 37.2821 5.69633 36.4125C5.80036 36.1499 5.99467 35.8351 6.27924 35.4679C6.96833 34.5799 7.65833 33.6901 8.34926 32.7984C8.36762 32.7752 8.37006 32.7504 8.3566 32.7241C7.92944 31.8863 7.57082 31.0203 7.28074 30.1262C7.27613 30.1117 7.26746 30.0988 7.25575 30.089C7.24403 30.0793 7.22977 30.0731 7.21465 30.0712C6.20121 29.9353 5.18839 29.8062 4.17617 29.6838C3.55012 29.6079 3.09358 29.5103 2.80656 29.3909C1.78027 28.965 1.17809 28.144 1 26.928V22.0564C1.19216 20.8379 1.79312 20.0234 2.80289 19.6127C3.10521 19.4903 3.67129 19.3796 4.50113 19.2804C5.40686 19.1721 6.31259 19.0555 7.21832 18.9307C7.2312 18.929 7.24337 18.9236 7.25344 18.9152C7.26351 18.9068 7.27106 18.8956 7.27523 18.8829C7.56837 17.9895 7.92699 17.1235 8.35109 16.2851C8.36701 16.2545 8.36425 16.2257 8.34283 16.1988C7.64579 15.3004 6.95058 14.4033 6.25721 13.5073C5.45307 12.4691 5.17951 11.2904 5.84137 10.1053C5.99436 9.83178 6.3028 9.4649 6.76668 9.00469C7.59408 8.18402 8.4178 7.36061 9.23785 6.53443C9.55241 6.21743 9.83086 5.99191 10.0732 5.85789C10.9 5.40074 11.7347 5.34505 12.5774 5.69082C12.8846 5.81689 13.3452 6.12074 13.959 6.60236C14.7056 7.1868 15.4543 7.7691 16.2052 8.34926C16.2285 8.36762 16.2536 8.36976 16.2805 8.35568C17.1189 7.93036 17.9852 7.57204 18.8793 7.28074C18.9105 7.27034 18.9282 7.24892 18.9325 7.21648C19.0757 6.11798 19.2159 5.02101 19.3529 3.92557C19.4154 3.42803 19.5038 3.04707 19.6182 2.7827C20.0583 1.76436 20.8762 1.17013 22.072 1ZM10.4018 16.6C9.79047 17.7431 9.32047 18.864 8.99184 19.9625C8.81926 20.5408 8.55121 20.7363 7.9325 20.8171C6.65652 20.9823 5.38024 21.1451 4.10365 21.3055C3.43262 21.3899 2.95436 21.6433 2.95527 22.3657C2.95711 23.7157 2.95742 25.0664 2.95619 26.4176C2.95527 27.2686 3.23342 27.5844 4.10641 27.6936C5.48397 27.8674 6.86154 28.044 8.2391 28.2233C8.60262 28.2701 8.86057 28.6309 8.97256 28.998C9.30578 30.0868 9.72713 31.1837 10.2917 32.1751C10.5046 32.5497 10.6203 33.0573 10.3862 33.3593C9.48601 34.5233 8.58395 35.6858 7.68006 36.8467C7.23576 37.4186 7.42119 37.8785 7.89945 38.3567C8.7703 39.2276 9.64084 40.099 10.5111 40.9711C10.8146 41.2753 11.0518 41.4555 11.2225 41.5118C11.542 41.6171 11.8642 41.5424 12.1891 41.2878C12.7228 40.8692 13.8158 40.0204 15.4681 38.7414C15.9041 38.4036 16.2521 38.4173 16.7496 38.6817C17.7385 39.2086 18.7682 39.6379 19.8386 39.9696C20.3719 40.1348 20.7226 40.3249 20.7932 40.8802C20.9628 42.2144 21.1323 43.5485 21.3018 44.8826C21.3642 45.3746 21.456 45.7455 21.9012 45.9438C22.0512 46.0111 22.3348 46.0447 22.7522 46.0447C24.0612 46.0441 25.3708 46.0438 26.6811 46.0438C27.0263 46.0438 27.2888 45.915 27.4687 45.6573C27.5727 45.508 27.648 45.2516 27.6945 44.8881C27.8634 43.5729 28.0323 42.2578 28.2013 40.9427C28.2701 40.4001 28.5253 40.1688 29.0568 40.0072C30.1945 39.6615 31.2859 39.2049 32.3312 38.6376C32.8168 38.3742 33.161 38.4586 33.5989 38.7983C34.6876 39.6416 35.7748 40.4861 36.8604 41.3319C37.4333 41.778 37.9051 41.5531 38.3806 41.0776C39.3322 40.1284 40.2826 39.1777 41.2318 38.2255C41.7734 37.682 41.5843 37.1918 41.1501 36.6319C40.327 35.5707 39.5033 34.5101 38.6789 33.4502C38.3595 33.0399 38.4687 32.6543 38.7111 32.1953C39.2349 31.2052 39.6612 30.1746 39.9898 29.1036C40.1413 28.6125 40.3552 28.2738 40.8619 28.2104C42.2033 28.0452 43.5442 27.8741 44.8844 27.6973C45.5619 27.6082 46.0456 27.365 46.0447 26.6343C46.0429 25.3412 46.0426 24.0484 46.0438 22.7559C46.0444 22.3367 46.0132 22.0499 45.9502 21.8957C45.8192 21.5757 45.5616 21.3905 45.1772 21.3404C43.755 21.1555 42.3322 20.9738 40.9087 20.7951C40.3542 20.7253 40.1523 20.4178 39.987 19.8826C39.6541 18.7988 39.2205 17.7572 38.6863 16.7579C38.4797 16.3714 38.3769 15.939 38.6404 15.6012C39.4537 14.5615 40.2618 13.5196 41.0647 12.4755C41.3759 12.0707 41.6862 11.7696 41.5146 11.239C41.4527 11.0481 41.2618 10.7944 40.9417 10.478C40.0336 9.57719 39.1291 8.67299 38.2282 7.76543C37.6288 7.16141 37.1111 7.47811 36.519 7.93984C35.5722 8.6785 34.624 9.41533 33.6742 10.1503C33.229 10.4946 32.8728 10.6598 32.3716 10.3871C31.2529 9.77701 30.1051 9.30211 28.9283 8.96246C28.4179 8.81467 28.2536 8.45207 28.1847 7.92332C28.0256 6.68345 27.8674 5.44358 27.7101 4.20371C27.6593 3.80348 27.5868 3.5287 27.4926 3.37937C27.3145 3.09664 27.036 2.95527 26.6572 2.95527C25.2919 2.95589 23.926 2.95619 22.5594 2.95619C21.6984 2.95619 21.4138 3.26187 21.3018 4.12752C21.1311 5.45368 20.9576 6.77984 20.7813 8.106C20.7232 8.54662 20.5099 8.82477 20.1415 8.94043C18.7407 9.38044 17.5485 9.8737 16.5651 10.4202C16.1612 10.6442 15.76 10.4826 15.3928 10.1971C14.369 9.40278 13.3451 8.60874 12.3213 7.815C11.8201 7.4267 11.2996 7.23668 10.8195 7.71953C9.79261 8.75072 8.76387 9.78068 7.7333 10.8094C7.22291 11.3189 7.4368 11.8357 7.84254 12.3589C8.6632 13.4189 9.47989 14.4816 10.2926 15.5471C10.5564 15.8928 10.5928 16.2438 10.4018 16.6Z" fill="#845E33"/>
<path d="M34 24.5C34 27.0196 32.9991 29.4359 31.2175 31.2175C29.4359 32.9991 27.0196 34 24.5 34C21.9804 34 19.5641 32.9991 17.7825 31.2175C16.0009 29.4359 15 27.0196 15 24.5C15 21.9804 16.0009 19.5641 17.7825 17.7825C19.5641 16.0009 21.9804 15 24.5 15C27.0196 15 29.4359 16.0009 31.2175 17.7825C32.9991 19.5641 34 21.9804 34 24.5ZM32.1005 24.5C32.1005 22.4842 31.2998 20.551 29.8744 19.1256C28.449 17.7002 26.5158 16.8995 24.5 16.8995C22.4842 16.8995 20.551 17.7002 19.1256 19.1256C17.7002 20.551 16.8995 22.4842 16.8995 24.5C16.8995 26.5158 17.7002 28.449 19.1256 29.8744C20.551 31.2998 22.4842 32.1005 24.5 32.1005C26.5158 32.1005 28.449 31.2998 29.8744 29.8744C31.2998 28.449 32.1005 26.5158 32.1005 24.5Z" fill="#845E33"/>
</svg>
