<svg width="41" height="41" viewBox="0 0 41 41" fill="none" xmlns="http://www.w3.org/2000/svg">
<circle cx="20.5" cy="20.5" r="20" fill="#FFBA69" fill-opacity="0.54" stroke="#FFBA69"/>
<g clip-path="url(#clip0_173_2)">
<path d="M21.6282 7.0325C19.7317 7.32162 18.136 8.12684 16.841 9.44817C16.602 9.69192 16.3816 9.9487 16.1799 10.2185C15.1449 11.5998 14.6107 13.1762 14.5772 14.9478C14.564 15.6367 14.7929 16.2034 15.2638 16.6479C15.5204 16.8907 15.8643 17.0823 16.2956 17.2228" stroke="#FFAD3E" stroke-width="2"/>
<path d="M23.4401 7.04468C23.2552 7.09851 23.0717 7.14522 22.8896 7.18483C19.3121 7.96534 16.7258 11.0071 16.5414 14.6548C16.5201 15.0722 16.5474 15.4075 16.6232 15.6607C16.7684 16.1472 17.0645 16.5545 17.4911 16.845C17.5764 16.9028 17.6619 16.9624 17.7475 17.0237" stroke="#FFCA50" stroke-width="2"/>
<path d="M23.5842 26.2151C22.9325 25.8563 22.5376 25.3334 22.3994 24.6465C22.3693 24.4952 22.3546 24.2836 22.3552 24.0117C22.3563 23.475 22.3486 22.8981 22.4324 22.4202C22.7209 20.779 23.7644 19.3916 25.2665 18.6563C25.5727 18.506 26.0293 18.3664 26.3461 18.1815C28.089 17.1674 28.7344 14.9163 27.67 13.1684C27.0708 12.1849 26.1806 11.6065 24.9994 11.4332C24.5563 11.3682 24.1021 11.4097 23.637 11.5576" stroke="#FFCA50" stroke-width="2"/>
<path d="M23.6372 11.5576C22.7448 11.303 21.871 11.3801 21.0159 11.7887" stroke="#FFB44A" stroke-width="2"/>
<path d="M23.637 11.5576C24.6347 11.8972 25.361 12.5018 25.816 13.3715C26.7514 15.16 26.0176 17.2923 24.2768 18.2389C23.9813 18.3994 23.5273 18.5345 23.2191 18.6924C21.4981 19.575 20.4337 21.3025 20.4017 23.2246C20.3936 23.707 20.3494 24.259 20.4494 24.6932C20.6505 25.566 21.222 26.1437 22.1638 26.4264" stroke="#FFAD3E" stroke-width="2"/>
<path d="M23.5847 28.7948C22.659 29.2818 22.1766 30.2842 22.4132 31.2861C22.5676 31.9415 22.9573 32.4382 23.5822 32.776" stroke="#FFCA50" stroke-width="2"/>
<path d="M22.1578 33C21.3185 32.7407 20.7728 32.2446 20.5206 31.5116C20.1844 30.5341 20.5465 29.4925 21.4067 28.9131C21.6112 28.7753 21.8802 28.6623 22.2136 28.5739" stroke="#FFAD3E" stroke-width="2"/>
<path d="M19.1022 7H19.6537L21.6281 7.0325C19.7316 7.32161 18.1359 8.12684 16.841 9.44816C16.602 9.69191 16.3816 9.9487 16.1798 10.2185C15.1449 11.5998 14.6106 13.1762 14.5771 14.9478C14.5639 15.6367 14.7928 16.2034 15.2637 16.6479C15.5203 16.8907 15.8643 17.0823 16.2956 17.2228C15.4766 17.2353 14.667 17.2397 13.8667 17.236C13.452 17.2339 13.1487 17.206 12.9567 17.1522C12.2671 16.9597 11.6928 16.4108 11.4678 15.7298C11.3865 15.4833 11.3512 15.1609 11.3617 14.7624C11.4206 12.5626 12.4174 10.5115 14.0475 9.04801C15.4511 7.78796 17.136 7.10529 19.1022 7Z" fill="#FE9738"/>
<path d="M21.9339 7H23.1582L23.4401 7.04469C23.2552 7.09852 23.0717 7.14523 22.8896 7.18484C19.312 7.96535 16.7258 11.0071 16.5414 14.6548C16.5201 15.0722 16.5473 15.4075 16.6232 15.6607C16.7684 16.1472 17.0645 16.5545 17.491 16.845C17.5763 16.9029 17.6618 16.9624 17.7475 17.0237C17.2766 17.236 16.7926 17.3023 16.2956 17.2228C15.8643 17.0823 15.5204 16.8907 15.2638 16.6479C14.7929 16.2034 14.564 15.6367 14.5772 14.9478C14.6107 13.1762 15.1449 11.5998 16.1799 10.2185C16.3816 9.9487 16.602 9.69191 16.841 9.44816C18.136 8.12684 19.7317 7.32161 21.6282 7.0325L21.9339 7Z" fill="#FFC344"/>
<path d="M23.4401 7.04468C25.1819 7.23392 26.7006 7.91253 27.9962 9.0805C32.4634 13.1075 31.0258 20.4062 25.4708 22.5396C25.2596 22.6208 25.1206 22.6917 25.0539 22.7523C24.8777 22.9133 24.8229 23.0971 24.8218 23.35C24.8198 23.8162 24.8538 24.3535 24.7472 24.7678C24.5816 25.4084 24.194 25.8908 23.5843 26.2151C22.9326 25.8563 22.5377 25.3334 22.3996 24.6465C22.3694 24.4951 22.3547 24.2836 22.3554 24.0117C22.3564 23.475 22.3488 22.8981 22.4326 22.4202C22.721 20.779 23.7646 19.3916 25.2667 18.6563C25.5729 18.506 26.0294 18.3664 26.3463 18.1815C28.0891 17.1674 28.7345 14.9163 27.6702 13.1684C27.0709 12.1849 26.1807 11.6065 24.9996 11.4332C24.5564 11.3682 24.1023 11.4097 23.6371 11.5576C22.7447 11.303 21.8709 11.38 21.0158 11.7887C20.9931 11.8053 20.9642 11.8232 20.9289 11.8425C19.847 12.441 19.2124 13.3394 19.0252 14.5375C19.0167 14.5923 19.0048 14.7722 18.9896 15.0773C18.9456 15.9493 18.5316 16.5982 17.7475 17.0237C17.6619 16.9624 17.5764 16.9028 17.4911 16.845C17.0645 16.5545 16.7684 16.1472 16.6232 15.6607C16.5474 15.4075 16.5201 15.0722 16.5414 14.6548C16.7258 11.0071 19.3121 7.96534 22.8896 7.18483C23.0717 7.14522 23.2552 7.09851 23.4401 7.04468Z" fill="#FFD15B"/>
<path d="M23.6372 11.5576C24.6348 11.8972 25.3612 12.5018 25.8162 13.3715C26.7516 15.1601 26.0178 17.2924 24.277 18.2389C23.9815 18.3994 23.5275 18.5345 23.2192 18.6924C21.4983 19.575 20.4339 21.3026 20.4019 23.2246C20.3938 23.707 20.3496 24.259 20.4496 24.6932C20.6507 25.566 21.2222 26.1437 22.164 26.4264C20.8085 26.442 19.8831 26.4453 19.3878 26.4365C18.1472 26.4147 17.1885 25.4493 17.1813 24.2149C17.1793 23.8465 17.1844 23.4784 17.1966 23.1104C17.2616 21.1695 18.3976 19.4511 20.1602 18.6254C20.1615 18.6247 20.3421 18.5529 20.702 18.4101C22.4951 17.6976 23.4554 15.6795 22.8049 13.8362C22.4914 12.9475 21.895 12.265 21.0158 11.7887C21.871 11.3801 22.7448 11.303 23.6372 11.5576Z" fill="#FE9738"/>
<path d="M23.5842 26.2151C23.1275 26.4264 22.654 26.4968 22.1638 26.4264C21.222 26.1437 20.6505 25.566 20.4494 24.6932C20.3494 24.259 20.3936 23.707 20.4017 23.2246C20.4337 21.3025 21.4981 19.575 23.2191 18.6924C23.5273 18.5345 23.9813 18.3994 24.2768 18.2389C26.0176 17.2923 26.7514 15.16 25.816 13.3715C25.361 12.5018 24.6347 11.8972 23.637 11.5576C24.1021 11.4097 24.5563 11.3682 24.9994 11.4332C26.1806 11.6065 27.0708 12.1849 27.67 13.1684C28.7344 14.9163 28.089 17.1674 26.3462 18.1815C26.0293 18.3664 25.5728 18.506 25.2666 18.6563C23.7644 19.3916 22.7209 20.779 22.4325 22.4202C22.3487 22.8981 22.3563 23.475 22.3553 24.0117C22.3546 24.2836 22.3693 24.4952 22.3994 24.6465C22.5376 25.3334 22.9325 25.8563 23.5842 26.2151Z" fill="#FFC344"/>
<path d="M23.5847 28.7948C22.659 29.2818 22.1766 30.2842 22.4132 31.2861C22.5676 31.9415 22.9572 32.4382 23.5822 32.7761C23.352 32.8888 23.115 32.9634 22.8712 33H22.1578C21.3185 32.7407 20.7728 32.2445 20.5206 31.5116C20.1844 30.5341 20.5465 29.4925 21.4067 28.9131C21.6112 28.7753 21.8802 28.6623 22.2136 28.5739C22.6676 28.5323 23.1734 28.5729 23.5847 28.7948Z" fill="#FFC344"/>
<path d="M22.2136 28.5739C21.8801 28.6623 21.6111 28.7753 21.4066 28.9131C20.5464 29.4925 20.1843 30.5341 20.5205 31.5116C20.7727 32.2445 21.3185 32.7407 22.1577 33H19.2479C18.1247 32.867 17.3325 32.124 17.1903 31.0205C17.1534 30.7331 17.1805 30.4425 17.2715 30.1486C17.5072 29.3864 18.115 28.806 18.897 28.6308C19.0846 28.5891 19.4214 28.5681 19.9076 28.5678C20.6734 28.5678 21.442 28.5698 22.2136 28.5739Z" fill="#FE9738"/>
<path d="M23.5847 28.7948C24.5222 29.2935 24.9787 30.2411 24.7578 31.2694C24.6149 31.9356 24.2231 32.4378 23.5822 32.776C22.9573 32.4382 22.5676 31.9415 22.4132 31.2861C22.1766 30.2842 22.659 29.2818 23.5847 28.7948Z" fill="#FFD15B"/>
</g>
<defs>
<clipPath id="clip0_173_2">
<rect width="26" height="26" fill="white" transform="translate(8 7)"/>
</clipPath>
</defs>
</svg>
