<svg width="38" height="38" viewBox="0 0 38 38" fill="none" xmlns="http://www.w3.org/2000/svg">
<path d="M28.523 2.79286C28.523 2.69661 28.4847 2.60429 28.4167 2.53623C28.3486 2.46817 28.2563 2.42993 28.16 2.42993H9.83394C9.73768 2.42993 9.64537 2.46817 9.57731 2.53623C9.50925 2.60429 9.47101 2.69661 9.47101 2.79286V2.82552C9.47101 2.87318 9.4804 2.92037 9.49863 2.9644C9.51687 3.00844 9.54361 3.04845 9.57731 3.08215C9.61101 3.11585 9.65102 3.14258 9.69505 3.16082C9.73908 3.17906 9.78628 3.18845 9.83394 3.18845H28.16C28.2077 3.18845 28.2549 3.17906 28.2989 3.16082C28.343 3.14258 28.383 3.11585 28.4167 3.08215C28.4504 3.04845 28.4771 3.00844 28.4953 2.9644C28.5136 2.92037 28.523 2.87318 28.523 2.82552V2.79286Z" stroke="#FF9100" stroke-width="2"/>
<path d="M20.3226 23.1659C24.1849 22.5432 27.1484 19.5411 27.6858 15.675C27.7353 15.3168 27.761 14.823 27.763 14.1936C27.7719 10.7944 27.7714 7.39368 27.7615 3.99149C27.7615 3.96478 27.7484 3.95142 27.7222 3.95142H12.7678" stroke="#FF9100" stroke-width="2"/>
<path d="M12.7679 3.95142L10.2682 3.95364C10.2414 3.95364 10.2281 3.967 10.2281 3.99372C10.2281 7.49882 10.2281 11.0042 10.2281 14.5098C10.2281 19.8528 15.0122 23.9549 20.3226 23.1659" stroke="#FF9100" stroke-width="2"/>
<path d="M12.7678 3.95142C12.7678 7.34618 12.774 10.7358 12.7864 14.1201C12.7943 16.2245 13.4197 18.0849 14.6626 19.7014C15.9169 21.332 17.6908 22.5017 19.7147 23.0019C19.9166 23.0519 20.1192 23.1065 20.3226 23.1659" stroke="#EFA838" stroke-width="2"/>
<path d="M9.05911 15.5058C7.38919 14.7329 6.45923 13.3985 6.26923 11.5024C6.13663 10.1774 6.00353 8.85207 5.86993 7.52653C5.81575 6.98844 5.98497 6.51195 6.4904 6.30043C6.65913 6.22968 7.00004 6.19529 7.51314 6.19727C8.15092 6.20024 8.7897 6.20024 9.42946 6.19727C9.4547 6.19677 9.46732 6.18391 9.46732 6.15867L9.4688 5.10254C9.4688 5.07681 9.45594 5.06395 9.43021 5.06395C8.69544 5.06296 7.96018 5.06271 7.22443 5.06321C6.82265 5.06321 6.51193 5.0966 6.29224 5.1634C5.32443 5.45879 4.61267 6.41473 4.7188 7.45899C4.84695 8.72813 4.9751 9.99702 5.10325 11.2657C5.17302 11.9539 5.24501 12.4433 5.31923 12.7337C5.86028 14.8512 7.57845 16.4669 9.7345 16.8989C9.75627 16.9033 9.76493 16.8947 9.76048 16.8729L9.53486 15.7077C9.5304 15.6854 9.51754 15.6708 9.49626 15.6639C9.29241 15.5991 9.14669 15.5464 9.05911 15.5058Z" stroke="#FF9100" stroke-width="2"/>
<path d="M31.5793 11.8364C31.3878 13.6295 30.187 15.0404 28.5059 15.6342C28.4817 15.6431 28.4671 15.6602 28.4621 15.6854L28.2387 16.8573C28.2338 16.883 28.2442 16.8929 28.2699 16.887C29.7988 16.5367 30.993 15.7062 31.8525 14.3955C32.3557 13.6286 32.6464 12.8671 32.7245 12.111C32.8834 10.5727 33.0357 9.03416 33.1817 7.49536C33.2797 6.46075 32.6703 5.50333 31.6996 5.18196C31.467 5.10527 31.0986 5.06569 30.5944 5.06321C29.9176 5.06024 29.2405 5.06099 28.5631 5.06544C28.5378 5.06544 28.5252 5.07806 28.5252 5.10329L28.5267 6.15942C28.5267 6.18367 28.5386 6.19579 28.5623 6.19579C29.1848 6.20123 29.8065 6.20148 30.4275 6.19653C30.8614 6.19356 31.1565 6.21657 31.3129 6.26556C31.6583 6.37441 31.8819 6.59979 31.9838 6.94169C32.0402 7.13119 32.0444 7.45231 31.9964 7.90505C31.8584 9.21575 31.7194 10.5262 31.5793 11.8364Z" stroke="#FF9100" stroke-width="2"/>
<path d="M20.4591 23.9118C19.4928 24.0617 18.5262 24.063 17.5594 23.9155C17.5538 23.9147 17.5481 23.9149 17.5427 23.9163C17.5372 23.9177 17.5321 23.9202 17.5276 23.9236C17.5232 23.927 17.5195 23.9313 17.5168 23.9361C17.5141 23.941 17.5124 23.9463 17.5119 23.9519L17.1801 27.1841C17.1772 27.2138 17.1908 27.2286 17.221 27.2286H20.779C20.8087 27.2286 20.8221 27.214 20.8191 27.1848L20.4851 23.9318C20.4848 23.9288 20.4839 23.9258 20.4825 23.9231C20.481 23.9204 20.479 23.918 20.4765 23.9161C20.4741 23.9142 20.4713 23.9129 20.4683 23.9121C20.4653 23.9114 20.4622 23.9113 20.4591 23.9118Z" stroke="#FF9100" stroke-width="2"/>
<path d="M26.3024 29.2979C26.2014 28.4866 25.5787 27.9834 24.7705 27.9842C21.1031 27.9852 17.4357 27.9847 13.7683 27.9827C13.1924 27.9827 12.8007 28.0223 12.5934 28.1014C12.1026 28.2885 11.8003 28.6875 11.6865 29.2986C11.6854 29.3045 11.6856 29.3105 11.6871 29.3163C11.6886 29.3221 11.6914 29.3275 11.6952 29.3321C11.699 29.3367 11.7038 29.3404 11.7092 29.343C11.7147 29.3455 11.7206 29.3468 11.7265 29.3468H26.2586C26.2917 29.3468 26.3063 29.3305 26.3024 29.2979Z" stroke="#FF9100" stroke-width="2"/>
<path d="M13.7713 35.7133L28.7056 35.7163C28.7646 35.7163 28.8213 35.6928 28.863 35.6511C28.9048 35.6093 28.9282 35.5527 28.9282 35.4937V30.3206C28.9282 30.2649 28.9061 30.2115 28.8667 30.1721C28.8273 30.1327 28.7739 30.1106 28.7182 30.1106H10.2377" stroke="#FF9100" stroke-width="2"/>
<path d="M10.2377 30.1106H9.34855C9.17339 30.1106 9.08582 30.1981 9.08582 30.3733V35.4944C9.08582 35.5532 9.1092 35.6097 9.15081 35.6513C9.19243 35.6929 9.24887 35.7163 9.30773 35.7163L13.7712 35.7133" stroke="#FF9100" stroke-width="2"/>
<path d="M10.2377 30.1106C10.2075 30.3273 10.2026 30.5452 10.2229 30.7644C10.3743 32.4165 11.0823 33.7681 12.347 34.819C12.6454 35.0669 13.1201 35.365 13.7713 35.7133" stroke="#928070" stroke-width="2"/>
<path d="M21.2495 9.39462C21.2294 9.39142 21.2102 9.38334 21.1937 9.37107C21.1771 9.3588 21.1637 9.3427 21.1545 9.32412C20.7176 8.43745 20.282 7.55177 19.8475 6.66708C19.5796 6.12009 18.85 5.94271 18.4136 6.35685C18.3221 6.44344 18.1984 6.64556 18.0425 6.96322C17.6541 7.7529 17.2682 8.5369 16.8847 9.31521C16.8728 9.33905 16.8553 9.35967 16.8338 9.3753C16.8122 9.39094 16.7872 9.40113 16.7608 9.40501C15.843 9.53762 14.9165 9.67245 13.9813 9.80951C13.725 9.84711 13.5404 9.90203 13.4276 9.97427C12.9407 10.286 12.8984 10.9621 13.3081 11.3696C14.0122 12.0702 14.7175 12.7701 15.4241 13.4692C15.4406 13.4855 15.4529 13.5055 15.46 13.5276C15.4671 13.5497 15.4688 13.5732 15.4649 13.5961C15.312 14.4843 15.1579 15.3806 15.0025 16.2851C14.9541 16.5696 14.9417 16.7725 14.9654 16.8937C15.0508 17.3331 15.5124 17.6626 15.954 17.601C16.0698 17.5847 16.2615 17.5065 16.5292 17.3665C17.3362 16.9429 18.1353 16.5246 18.9265 16.1114C18.9492 16.0995 18.9744 16.0933 19 16.0933C19.0256 16.0933 19.0508 16.0995 19.0734 16.1114C19.9156 16.5572 20.7607 17.0006 21.6088 17.4414C21.8245 17.5537 22.0016 17.6082 22.1402 17.6047C22.6486 17.5928 23.1087 17.0918 23.0219 16.5879C22.8561 15.6241 22.6867 14.6374 22.5135 13.6281C22.508 13.5958 22.5105 13.5626 22.5207 13.5315C22.5309 13.5003 22.5486 13.4721 22.5721 13.4492C23.2841 12.755 23.9922 12.0571 24.6963 11.3555C25.2707 10.7833 24.9115 9.91712 24.1404 9.81322C23.1656 9.68111 22.202 9.54158 21.2495 9.39462Z" stroke="#FF9100" stroke-width="2"/>
<path d="M18.8886 6.95209C18.4292 7.85533 17.9795 8.78158 17.5275 9.69744C17.3813 9.99358 17.0896 10.1153 16.7474 10.1665C15.787 10.3095 14.837 10.4485 13.8974 10.5836C13.8712 10.5875 13.8466 10.5986 13.8264 10.6156C13.8062 10.6327 13.7911 10.655 13.7829 10.6801C13.7747 10.7052 13.7737 10.7321 13.7801 10.7577C13.7864 10.7832 13.7998 10.8065 13.8188 10.8248C14.5006 11.4888 15.1893 12.1635 15.885 12.8488C16.098 13.0581 16.2799 13.3453 16.2331 13.6199C16.0599 14.6461 15.8855 15.6721 15.7099 16.6978C15.7059 16.7208 15.7084 16.7444 15.7171 16.766C15.7258 16.7877 15.7404 16.8065 15.7593 16.8203C15.7781 16.8341 15.8004 16.8424 15.8236 16.8442C15.8469 16.846 15.8702 16.8413 15.8909 16.8306C16.7766 16.3729 17.6757 15.9098 18.5881 15.4412C18.8716 15.2958 19.1459 15.2923 19.4111 15.4308C20.2701 15.8796 21.1283 16.3296 21.9858 16.7809C22.0518 16.8158 22.1223 16.8662 22.1973 16.8447C22.2276 16.836 22.2536 16.8164 22.2703 16.7897C22.2871 16.763 22.2933 16.731 22.2879 16.7C22.1107 15.6743 21.9368 14.6659 21.7661 13.6748C21.7112 13.3535 21.8737 13.087 22.1172 12.848C22.8064 12.1736 23.4969 11.5007 24.1886 10.8293C24.208 10.8104 24.2218 10.7865 24.2283 10.7603C24.2348 10.734 24.2339 10.7065 24.2255 10.6807C24.2172 10.655 24.2018 10.6321 24.1811 10.6147C24.1604 10.5973 24.1352 10.586 24.1084 10.5821C23.1654 10.4451 22.2127 10.3055 21.2503 10.1635C20.9675 10.122 20.6365 9.99951 20.5192 9.76276C20.0502 8.82166 19.5865 7.88527 19.1284 6.95358C19.1175 6.93123 19.1006 6.91239 19.0796 6.89916C19.0586 6.88594 19.0343 6.87885 19.0094 6.8787C18.9845 6.87854 18.96 6.88533 18.9387 6.89829C18.9173 6.91126 18.9 6.92989 18.8886 6.95209Z" stroke="#FF9100" stroke-width="2"/>
<path d="M25.3442 31.209C25.3442 31.1051 25.3029 31.0054 25.2294 30.9319C25.1559 30.8584 25.0563 30.8171 24.9523 30.8171H13.0476C12.9437 30.8171 12.844 30.8584 12.7705 30.9319C12.697 31.0054 12.6558 31.1051 12.6558 31.209V34.5221C12.6558 34.626 12.697 34.7257 12.7705 34.7992C12.844 34.8727 12.9437 34.914 13.0476 34.914H24.9523C25.0563 34.914 25.1559 34.8727 25.2294 34.7992C25.3029 34.7257 25.3442 34.626 25.3442 34.5221V31.209Z" stroke="#FF9100" stroke-width="2"/>
<path d="M24.5835 31.5987C24.5835 31.5933 24.5813 31.5882 24.5776 31.5845C24.5738 31.5807 24.5687 31.5786 24.5634 31.5786H13.4365C13.4312 31.5786 13.4261 31.5807 13.4224 31.5845C13.4186 31.5882 13.4165 31.5933 13.4165 31.5987V34.131C13.4165 34.1363 13.4186 34.1414 13.4224 34.1452C13.4261 34.1489 13.4312 34.151 13.4365 34.151H24.5634C24.5687 34.151 24.5738 34.1489 24.5776 34.1452C24.5813 34.1414 24.5835 34.1363 24.5835 34.131V31.5987Z" stroke="#64594D" stroke-width="2"/>
<path d="M9.46808 4.27204V3.9195C9.46808 3.89575 9.45719 3.87893 9.43542 3.86903C8.5062 3.46083 8.44905 2.13528 9.41167 1.76864C9.5898 1.70085 9.91265 1.66696 10.3802 1.66696C16.3212 1.67141 22.2622 1.67191 28.2031 1.66845C28.5356 1.66845 28.8179 1.82505 29.05 2.13825C29.5116 2.76095 29.2615 3.57067 28.5609 3.86755C28.5507 3.87202 28.542 3.87931 28.536 3.88854C28.5299 3.89776 28.5267 3.90853 28.5267 3.9195L28.526 4.26759C28.526 4.29876 28.5413 4.31434 28.572 4.31434C29.1172 4.31583 29.6623 4.31608 30.207 4.31509C30.9269 4.3141 31.4193 4.34502 31.684 4.40786C32.8551 4.6847 33.7903 5.72302 33.9269 6.93946C33.9521 7.16459 33.9365 7.56018 33.8801 8.12622C33.7703 9.21625 33.6594 10.3065 33.5476 11.397C33.4778 12.0789 33.4068 12.5677 33.3346 12.8636C32.7082 15.4227 30.613 17.2759 28.0153 17.699C27.9901 17.7029 27.972 17.7165 27.9612 17.7398C27.8654 17.9461 27.789 18.1977 27.7058 18.3743C26.3966 21.1477 24.252 22.9437 21.2718 23.7626C21.2466 23.7696 21.2352 23.7861 21.2377 23.8124L21.5828 27.1826C21.5858 27.2118 21.6019 27.2264 21.631 27.2264C22.7122 27.2299 23.7891 27.2299 24.8618 27.2264C26.0753 27.2234 26.9355 28.1393 27.0728 29.3053C27.0757 29.3315 27.0903 29.3449 27.1166 29.3454C27.4906 29.3498 27.8649 29.3508 28.2395 29.3483C28.6709 29.3459 28.9634 29.3783 29.1167 29.4456C29.6177 29.666 29.6897 30.0994 29.6897 30.642C29.6887 32.1733 29.688 33.7045 29.6875 35.2354C29.6875 35.5476 29.6526 35.7769 29.5828 35.9234C29.352 36.4095 28.9423 36.48 28.4042 36.48C22.1704 36.4795 15.9365 36.4795 9.70261 36.48C9.3043 36.48 9.02623 36.4422 8.86839 36.3665C8.38523 36.1349 8.32585 35.7111 8.32659 35.1767C8.32709 33.6196 8.32758 32.0628 8.32808 30.5061C8.32882 29.8018 8.67542 29.335 9.44433 29.3446C9.92724 29.3506 10.4102 29.3506 10.8931 29.3446C10.9198 29.3446 10.9341 29.331 10.9361 29.3038C11.0118 28.3471 11.6241 27.5886 12.4955 27.3303C12.7364 27.2591 13.1419 27.2244 13.7119 27.2264C14.5981 27.2299 15.484 27.2299 16.3697 27.2264C16.3984 27.2259 16.4142 27.2116 16.4172 27.1834L16.7616 23.8153C16.7645 23.7896 16.7536 23.7733 16.7289 23.7663C13.4999 22.8643 11.2669 20.8597 10.0299 17.7524C10.021 17.7301 10.0047 17.7173 9.98093 17.7138C7.38105 17.3427 5.2673 15.5199 4.58819 12.9905C4.49963 12.6625 4.42269 12.1746 4.35737 11.5269C4.22576 10.2266 4.09687 8.9263 3.97069 7.62599C3.82671 6.1379 4.73069 4.81681 6.17277 4.42196C6.4162 4.35517 6.74474 4.32053 7.15839 4.31806C7.91394 4.3141 8.66899 4.31335 9.42355 4.31583C9.45323 4.31632 9.46808 4.30173 9.46808 4.27204ZM28.523 2.79286C28.523 2.69661 28.4848 2.60429 28.4167 2.53623C28.3486 2.46817 28.2563 2.42993 28.1601 2.42993H9.83398C9.73772 2.42993 9.64541 2.46817 9.57735 2.53623C9.50928 2.60429 9.47105 2.69661 9.47105 2.79286V2.82552C9.47105 2.87318 9.48043 2.92037 9.49867 2.9644C9.51691 3.00844 9.54365 3.04845 9.57735 3.08215C9.61105 3.11585 9.65106 3.14258 9.69509 3.16082C9.73912 3.17906 9.78632 3.18845 9.83398 3.18845H28.1601C28.2077 3.18845 28.2549 3.17906 28.299 3.16082C28.343 3.14258 28.383 3.11585 28.4167 3.08215C28.4504 3.04845 28.4771 3.00844 28.4954 2.9644C28.5136 2.92037 28.523 2.87318 28.523 2.82552V2.79286ZM20.3226 23.1659C24.1849 22.5432 27.1485 19.5411 27.6858 15.675C27.7353 15.3168 27.761 14.823 27.763 14.1936C27.7719 10.7944 27.7714 7.39368 27.7615 3.99149C27.7615 3.96477 27.7484 3.95142 27.7222 3.95142H12.7678L10.2682 3.95364C10.2414 3.95364 10.2281 3.967 10.2281 3.99372C10.2281 7.49882 10.2281 11.0042 10.2281 14.5098C10.2281 19.8528 15.0122 23.9549 20.3226 23.1659ZM9.05913 15.5058C7.38921 14.7329 6.45925 13.3985 6.26925 11.5024C6.13665 10.1774 6.00355 8.85208 5.86995 7.52653C5.81577 6.98845 5.98499 6.51196 6.49042 6.30044C6.65915 6.22968 7.00006 6.19529 7.51316 6.19727C8.15094 6.20024 8.78972 6.20024 9.42948 6.19727C9.45472 6.19678 9.46734 6.18392 9.46734 6.15868L9.46882 5.10255C9.46882 5.07682 9.45596 5.06395 9.43023 5.06395C8.69546 5.06296 7.9602 5.06272 7.22444 5.06321C6.82267 5.06321 6.51194 5.09661 6.29226 5.16341C5.32444 5.4588 4.61269 6.41474 4.71882 7.45899C4.84697 8.72813 4.97512 9.99703 5.10327 11.2657C5.17304 11.9539 5.24503 12.4433 5.31925 12.7337C5.8603 14.8512 7.57847 16.4669 9.73452 16.8989C9.75629 16.9033 9.76495 16.8947 9.7605 16.8729L9.53487 15.7077C9.53042 15.6854 9.51756 15.6708 9.49628 15.6639C9.29243 15.5991 9.14671 15.5464 9.05913 15.5058ZM31.5793 11.8364C31.3878 13.6295 30.187 15.0404 28.5059 15.6342C28.4817 15.6431 28.4671 15.6602 28.4621 15.6854L28.2387 16.8573C28.2338 16.883 28.2442 16.8929 28.2699 16.887C29.7988 16.5367 30.993 15.7062 31.8525 14.3955C32.3557 13.6286 32.6463 12.8671 32.7245 12.111C32.8834 10.5727 33.0357 9.03416 33.1817 7.49536C33.2797 6.46075 32.6703 5.50333 31.6996 5.18196C31.467 5.10527 31.0986 5.06569 30.5944 5.06321C29.9176 5.06024 29.2404 5.06099 28.5631 5.06544C28.5378 5.06544 28.5252 5.07806 28.5252 5.10329L28.5267 6.15942C28.5267 6.18367 28.5386 6.19579 28.5623 6.19579C29.1848 6.20123 29.8065 6.20148 30.4275 6.19653C30.8614 6.19356 31.1565 6.21657 31.3129 6.26556C31.6582 6.37441 31.8819 6.59979 31.9838 6.94169C32.0402 7.13119 32.0444 7.45231 31.9964 7.90505C31.8584 9.21575 31.7194 10.5262 31.5793 11.8364ZM9.40648 14.8289C9.44804 14.8482 9.46882 14.8349 9.46882 14.7888L9.46734 6.99884C9.46734 6.9886 9.46335 6.97878 9.45625 6.97155C9.44915 6.96431 9.43952 6.96024 9.42948 6.96024H6.92163C6.87751 6.96022 6.83387 6.96946 6.79354 6.98736C6.7532 7.00527 6.71708 7.03143 6.68749 7.06416C6.6579 7.0969 6.63551 7.13548 6.62176 7.17741C6.60802 7.21934 6.60322 7.26369 6.60769 7.30759C6.75316 8.71329 6.90283 10.1361 7.05671 11.5759C7.2195 13.0964 8.00275 14.1807 9.40648 14.8289ZM28.5653 14.7777C29.8062 14.2366 30.6976 13.064 30.8364 11.708C30.9863 10.2345 31.1348 8.76846 31.2817 7.30981C31.2862 7.26561 31.2813 7.22097 31.2675 7.17877C31.2537 7.13656 31.2312 7.09773 31.2015 7.06479C31.1717 7.03185 31.1355 7.00552 31.0949 6.98751C31.0544 6.96951 31.0106 6.96022 30.9663 6.96024H28.5586C28.55 6.96024 28.5417 6.96361 28.5355 6.96959C28.5294 6.97558 28.526 6.98369 28.526 6.99216L28.5252 14.7517C28.5252 14.7809 28.5386 14.7896 28.5653 14.7777ZM20.4591 23.9118C19.4928 24.0617 18.5262 24.063 17.5594 23.9155C17.5538 23.9147 17.5481 23.915 17.5427 23.9163C17.5372 23.9177 17.5321 23.9202 17.5276 23.9236C17.5232 23.927 17.5195 23.9313 17.5168 23.9361C17.5141 23.941 17.5124 23.9464 17.5119 23.9519L17.1801 27.1841C17.1772 27.2138 17.1908 27.2286 17.221 27.2286H20.779C20.8087 27.2286 20.8221 27.214 20.8191 27.1849L20.4851 23.9318C20.4848 23.9288 20.4839 23.9258 20.4825 23.9231C20.481 23.9204 20.479 23.918 20.4765 23.9161C20.4741 23.9142 20.4713 23.9129 20.4683 23.9121C20.4653 23.9114 20.4622 23.9113 20.4591 23.9118ZM26.3024 29.2979C26.2014 28.4867 25.5787 27.9834 24.7705 27.9842C21.1031 27.9852 17.4357 27.9847 13.7683 27.9827C13.1924 27.9827 12.8007 28.0223 12.5934 28.1015C12.1026 28.2885 11.8003 28.6875 11.6865 29.2986C11.6854 29.3045 11.6856 29.3105 11.6871 29.3163C11.6886 29.3221 11.6914 29.3275 11.6952 29.3321C11.699 29.3367 11.7038 29.3404 11.7092 29.343C11.7147 29.3455 11.7206 29.3468 11.7266 29.3468H26.2586C26.2917 29.3468 26.3063 29.3305 26.3024 29.2979ZM13.7713 35.7133L28.7056 35.7163C28.7646 35.7163 28.8213 35.6928 28.863 35.6511C28.9048 35.6093 28.9282 35.5527 28.9282 35.4936V30.3206C28.9282 30.2649 28.9061 30.2115 28.8667 30.1721C28.8273 30.1327 28.7739 30.1106 28.7182 30.1106H10.2377H9.34859C9.17343 30.1106 9.08585 30.1981 9.08585 30.3733V35.4944C9.08585 35.5532 9.10923 35.6097 9.15085 35.6513C9.19247 35.6929 9.24891 35.7163 9.30777 35.7163L13.7713 35.7133Z" fill="#FF9100"/>
<path d="M28.1601 2.42993H9.834C9.63356 2.42993 9.47107 2.59242 9.47107 2.79286V2.82552C9.47107 3.02596 9.63356 3.18845 9.834 3.18845H28.1601C28.3605 3.18845 28.523 3.02596 28.523 2.82552V2.79286C28.523 2.59242 28.3605 2.42993 28.1601 2.42993Z" fill="#FF9100"/>
<path d="M12.7679 3.95142C12.7679 7.34618 12.774 10.7358 12.7864 14.1201C12.7943 16.2245 13.4197 18.0849 14.6627 19.7014C15.917 21.332 17.6908 22.5017 19.7147 23.0019C19.9166 23.0519 20.1192 23.1065 20.3226 23.1659C15.0122 23.9549 10.2281 19.8528 10.2281 14.5098C10.2281 11.0042 10.2281 7.49882 10.2281 3.99372C10.2281 3.967 10.2414 3.95364 10.2682 3.95364L12.7679 3.95142Z" fill="#FABE2C"/>
<path d="M12.7678 3.95142H27.7222C27.7484 3.95142 27.7615 3.96478 27.7615 3.99149C27.7714 7.39368 27.7719 10.7944 27.763 14.1936C27.761 14.823 27.7353 15.3168 27.6858 15.675C27.1484 19.5411 24.1849 22.5432 20.3226 23.1659C20.1192 23.1065 19.9166 23.0519 19.7147 23.0019C17.6908 22.5017 15.9169 21.332 14.6626 19.7014C13.4197 18.0849 12.7943 16.2245 12.7864 14.1201C12.774 10.7358 12.7678 7.34618 12.7678 3.95142ZM21.2495 9.39462C21.2294 9.39141 21.2102 9.38334 21.1937 9.37107C21.1771 9.3588 21.1637 9.3427 21.1545 9.32411C20.7176 8.43744 20.282 7.55177 19.8476 6.66708C19.5796 6.12009 18.85 5.94271 18.4136 6.35685C18.3221 6.44343 18.1984 6.64556 18.0426 6.96321C17.6541 7.7529 17.2682 8.5369 16.8847 9.31521C16.8728 9.33905 16.8553 9.35966 16.8338 9.3753C16.8122 9.39093 16.7872 9.40112 16.7608 9.40501C15.843 9.53761 14.9165 9.67244 13.9813 9.8095C13.725 9.84711 13.5404 9.90203 13.4276 9.97427C12.9408 10.286 12.8984 10.9621 13.3081 11.3696C14.0122 12.0702 14.7175 12.7701 15.4241 13.4692C15.4406 13.4855 15.4529 13.5055 15.46 13.5276C15.4671 13.5497 15.4688 13.5732 15.4649 13.5961C15.312 14.4843 15.1579 15.3806 15.0025 16.2851C14.9541 16.5696 14.9417 16.7725 14.9654 16.8937C15.0508 17.3331 15.5124 17.6626 15.954 17.601C16.0698 17.5847 16.2615 17.5065 16.5292 17.3665C17.3362 16.9429 18.1353 16.5246 18.9265 16.1114C18.9492 16.0995 18.9744 16.0933 19 16.0933C19.0256 16.0933 19.0508 16.0995 19.0734 16.1114C19.9156 16.5572 20.7607 17.0006 21.6088 17.4414C21.8245 17.5537 22.0016 17.6082 22.1402 17.6047C22.6486 17.5928 23.1087 17.0918 23.0219 16.5879C22.8561 15.624 22.6867 14.6374 22.5135 13.6281C22.508 13.5958 22.5105 13.5626 22.5207 13.5315C22.5309 13.5003 22.5486 13.4721 22.5721 13.4492C23.2841 12.755 23.9922 12.0571 24.6963 11.3555C25.2707 10.7833 24.9115 9.91712 24.1404 9.81321C23.1656 9.6811 22.202 9.54157 21.2495 9.39462Z" fill="#FED843"/>
<path d="M9.05911 15.5058C9.14669 15.5464 9.29241 15.5991 9.49626 15.6639C9.51754 15.6708 9.5304 15.6854 9.53486 15.7077L9.76048 16.8729C9.76493 16.8947 9.75628 16.9033 9.7345 16.8989C7.57845 16.4669 5.86029 14.8512 5.31923 12.7337C5.24501 12.4433 5.17302 11.9539 5.10325 11.2657C4.9751 9.99702 4.84695 8.72813 4.7188 7.45899C4.61267 6.41473 5.32443 5.45879 6.29224 5.1634C6.51193 5.0966 6.82265 5.06321 7.22443 5.06321C7.96018 5.06271 8.69544 5.06296 9.43021 5.06395C9.45594 5.06395 9.4688 5.07681 9.4688 5.10254L9.46732 6.15867C9.46732 6.18391 9.4547 6.19677 9.42947 6.19727C8.7897 6.20024 8.15092 6.20024 7.51314 6.19727C7.00004 6.19529 6.65913 6.22968 6.4904 6.30043C5.98497 6.51195 5.81575 6.98844 5.86993 7.52653C6.00353 8.85207 6.13663 10.1774 6.26923 11.5024C6.45923 13.3985 7.38919 14.7329 9.05911 15.5058Z" fill="#FABE2C"/>
<path d="M28.5059 15.6342C30.187 15.0404 31.3878 13.6295 31.5793 11.8364C31.7194 10.5262 31.8584 9.21575 31.9964 7.90505C32.0444 7.45231 32.0402 7.13119 31.9838 6.94169C31.8819 6.59979 31.6583 6.37441 31.3129 6.26556C31.1565 6.21657 30.8614 6.19356 30.4275 6.19653C29.8065 6.20148 29.1848 6.20123 28.5623 6.19579C28.5386 6.19579 28.5267 6.18367 28.5267 6.15942L28.5252 5.10329C28.5252 5.07806 28.5378 5.06544 28.5631 5.06544C29.2405 5.06099 29.9176 5.06024 30.5944 5.06321C31.0986 5.06569 31.467 5.10527 31.6996 5.18196C32.6703 5.50333 33.2797 6.46075 33.1817 7.49536C33.0357 9.03416 32.8834 10.5727 32.7245 12.111C32.6464 12.8671 32.3557 13.6286 31.8525 14.3955C30.993 15.7062 29.7988 16.5367 28.2699 16.887C28.2442 16.8929 28.2338 16.883 28.2387 16.8573L28.4621 15.6854C28.4671 15.6602 28.4817 15.6431 28.5059 15.6342Z" fill="#FED843"/>
<path d="M21.2496 9.39462C22.2021 9.54158 23.1657 9.68111 24.1404 9.81322C24.9116 9.91712 25.2708 10.7833 24.6963 11.3555C23.9922 12.0571 23.2842 12.755 22.5722 13.4492C22.5486 13.4721 22.531 13.5003 22.5208 13.5315C22.5105 13.5626 22.5081 13.5958 22.5135 13.6281C22.6867 14.6374 22.8562 15.6241 23.0219 16.5879C23.1088 17.0918 22.6486 17.5928 22.1402 17.6047C22.0017 17.6082 21.8245 17.5537 21.6088 17.4414C20.7607 17.0006 19.9156 16.5572 19.0735 16.1114C19.0508 16.0995 19.0256 16.0933 19 16.0933C18.9744 16.0933 18.9492 16.0995 18.9266 16.1114C18.1354 16.5246 17.3363 16.9429 16.5293 17.3665C16.2616 17.5065 16.0699 17.5847 15.9541 17.601C15.5125 17.6626 15.0508 17.3331 14.9655 16.8937C14.9417 16.7725 14.9541 16.5696 15.0026 16.2851C15.158 15.3806 15.3121 14.4843 15.465 13.5961C15.4689 13.5732 15.4672 13.5497 15.4601 13.5276C15.453 13.5055 15.4407 13.4855 15.4242 13.4692C14.7176 12.7701 14.0123 12.0702 13.3082 11.3696C12.8985 10.9621 12.9408 10.286 13.4277 9.97427C13.5405 9.90203 13.7251 9.84711 13.9814 9.80951C14.9165 9.67245 15.843 9.53762 16.7608 9.40501C16.7872 9.40113 16.8122 9.39094 16.8338 9.3753C16.8554 9.35967 16.8729 9.33905 16.8848 9.31521C17.2683 8.5369 17.6542 7.7529 18.0426 6.96322C18.1985 6.64556 18.3222 6.44344 18.4137 6.35685C18.8501 5.94271 19.5797 6.12009 19.8476 6.66708C20.282 7.55177 20.7177 8.43745 21.1546 9.32412C21.1638 9.3427 21.1772 9.3588 21.1937 9.37107C21.2103 9.38334 21.2294 9.39142 21.2496 9.39462ZM18.8887 6.95208C18.4293 7.85533 17.9795 8.78158 17.5275 9.69744C17.3813 9.99357 17.0896 10.1153 16.7475 10.1665C15.7871 10.3095 14.8371 10.4485 13.8975 10.5836C13.8713 10.5875 13.8467 10.5985 13.8265 10.6156C13.8062 10.6327 13.7911 10.655 13.783 10.6801C13.7748 10.7052 13.7738 10.7321 13.7801 10.7577C13.7865 10.7832 13.7999 10.8065 13.8188 10.8248C14.5006 11.4888 15.1894 12.1635 15.8851 12.8488C16.0981 13.0581 16.2799 13.3453 16.2332 13.6199C16.06 14.6461 15.8856 15.672 15.7099 16.6977C15.7059 16.7207 15.7085 16.7444 15.7172 16.766C15.7259 16.7877 15.7405 16.8065 15.7593 16.8203C15.7781 16.8341 15.8004 16.8423 15.8237 16.8442C15.847 16.846 15.8703 16.8413 15.891 16.8306C16.7767 16.3729 17.6757 15.9098 18.5881 15.4412C18.8716 15.2958 19.146 15.2923 19.4112 15.4308C20.2702 15.8796 21.1284 16.3296 21.9859 16.7809C22.0519 16.8158 22.1224 16.8662 22.1974 16.8447C22.2277 16.836 22.2537 16.8164 22.2704 16.7897C22.2871 16.763 22.2934 16.731 22.2879 16.7C22.1108 15.6743 21.9369 14.6659 21.7662 13.6748C21.7112 13.3535 21.8738 13.087 22.1172 12.848C22.8065 12.1736 23.4969 11.5007 24.1887 10.8293C24.2081 10.8104 24.2218 10.7865 24.2284 10.7603C24.2349 10.734 24.2339 10.7065 24.2256 10.6807C24.2172 10.655 24.2018 10.6321 24.1811 10.6147C24.1604 10.5973 24.1353 10.586 24.1085 10.5821C23.1654 10.4451 22.2127 10.3055 21.2503 10.1635C20.9676 10.122 20.6366 9.99951 20.5193 9.76275C20.0502 8.82165 19.5866 7.88526 19.1284 6.95357C19.1176 6.93123 19.1007 6.91238 19.0797 6.89916C19.0587 6.88593 19.0343 6.87884 19.0094 6.87869C18.9845 6.87853 18.9601 6.88532 18.9387 6.89828C18.9174 6.91125 18.9001 6.92988 18.8887 6.95208Z" fill="#FF9100"/>
<path d="M17.5275 9.69741C17.9795 8.78155 18.4293 7.8553 18.8887 6.95206C18.9001 6.92986 18.9174 6.91123 18.9387 6.89826C18.9601 6.8853 18.9845 6.87851 19.0094 6.87866C19.0343 6.87882 19.0587 6.88591 19.0797 6.89913C19.1007 6.91236 19.1176 6.9312 19.1284 6.95355C19.5866 7.88524 20.0502 8.82163 20.5193 9.76273C20.6366 9.99948 20.9676 10.1219 21.2503 10.1635C22.2127 10.3055 23.1654 10.445 24.1085 10.5821C24.1353 10.586 24.1604 10.5972 24.1811 10.6147C24.2018 10.6321 24.2172 10.655 24.2256 10.6807C24.2339 10.7064 24.2349 10.734 24.2284 10.7603C24.2218 10.7865 24.2081 10.8104 24.1887 10.8292C23.4969 11.5007 22.8065 12.1736 22.1172 12.848C21.8738 13.087 21.7112 13.3534 21.7662 13.6748C21.9369 14.6659 22.1108 15.6742 22.2879 16.7C22.2934 16.731 22.2871 16.763 22.2704 16.7897C22.2537 16.8164 22.2277 16.836 22.1974 16.8447C22.1224 16.8662 22.0519 16.8157 21.9859 16.7809C21.1284 16.3296 20.2702 15.8796 19.4112 15.4308C19.146 15.2923 18.8716 15.2957 18.5881 15.4412C17.6757 15.9098 16.7767 16.3729 15.891 16.8306C15.8703 16.8413 15.847 16.846 15.8237 16.8441C15.8004 16.8423 15.7781 16.834 15.7593 16.8202C15.7405 16.8064 15.7259 16.7877 15.7172 16.766C15.7085 16.7444 15.7059 16.7207 15.7099 16.6977C15.8856 15.672 16.06 14.6461 16.2332 13.6199C16.2799 13.3453 16.0981 13.058 15.8851 12.8487C15.1894 12.1635 14.5006 11.4888 13.8188 10.8248C13.7999 10.8065 13.7865 10.7832 13.7801 10.7576C13.7738 10.7321 13.7748 10.7052 13.783 10.6801C13.7911 10.655 13.8062 10.6326 13.8265 10.6156C13.8467 10.5985 13.8713 10.5874 13.8975 10.5836C14.8371 10.4485 15.7871 10.3095 16.7475 10.1665C17.0896 10.1153 17.3813 9.99355 17.5275 9.69741Z" fill="#FF9100"/>
<path d="M20.4591 23.9118C20.4622 23.9113 20.4653 23.9114 20.4683 23.9121C20.4713 23.9129 20.4741 23.9142 20.4765 23.9161C20.479 23.918 20.481 23.9204 20.4825 23.9231C20.4839 23.9258 20.4848 23.9288 20.4851 23.9318L20.8191 27.1848C20.8221 27.214 20.8087 27.2286 20.779 27.2286H17.221C17.1908 27.2286 17.1772 27.2138 17.1801 27.1841L17.5119 23.9519C17.5124 23.9463 17.5141 23.941 17.5168 23.9361C17.5195 23.9313 17.5232 23.927 17.5276 23.9236C17.5321 23.9202 17.5372 23.9177 17.5427 23.9163C17.5481 23.9149 17.5538 23.9147 17.5594 23.9155C18.5262 24.063 19.4928 24.0617 20.4591 23.9118Z" fill="#FABE2C"/>
<path d="M24.7705 27.9842C25.5787 27.9834 26.2014 28.4866 26.3024 29.2979C26.3063 29.3305 26.2917 29.3468 26.2586 29.3468H11.7265C11.7206 29.3468 11.7147 29.3455 11.7092 29.343C11.7038 29.3404 11.699 29.3367 11.6952 29.3321C11.6914 29.3275 11.6886 29.3221 11.6871 29.3163C11.6856 29.3105 11.6854 29.3045 11.6865 29.2986C11.8003 28.6875 12.1026 28.2885 12.5934 28.1014C12.8007 28.0223 13.1924 27.9827 13.7683 27.9827C17.4357 27.9847 21.1031 27.9852 24.7705 27.9842Z" fill="#FABE2C"/>
<path d="M10.2378 30.1105C10.2076 30.3273 10.2026 30.5452 10.2229 30.7644C10.3743 32.4165 11.0824 33.768 12.347 34.819C12.6454 35.0669 13.1202 35.365 13.7713 35.7133L9.30779 35.7163C9.24894 35.7163 9.19249 35.6929 9.15087 35.6513C9.10926 35.6097 9.08588 35.5532 9.08588 35.4944V30.3733C9.08588 30.1981 9.17345 30.1105 9.34861 30.1105H10.2378Z" fill="#8A796A"/>
<path d="M10.2377 30.1105H28.7182C28.7739 30.1105 28.8273 30.1327 28.8667 30.1721C28.9061 30.2114 28.9282 30.2649 28.9282 30.3206V35.4936C28.9282 35.5527 28.9048 35.6093 28.863 35.6511C28.8212 35.6928 28.7646 35.7163 28.7056 35.7163L13.7713 35.7133C13.1201 35.365 12.6454 35.0669 12.347 34.819C11.0823 33.768 10.3743 32.4165 10.2229 30.7644C10.2026 30.5452 10.2075 30.3273 10.2377 30.1105ZM25.3442 31.209C25.3442 31.105 25.3029 31.0054 25.2294 30.9319C25.1559 30.8584 25.0562 30.8171 24.9523 30.8171H13.0476C12.9437 30.8171 12.844 30.8584 12.7705 30.9319C12.697 31.0054 12.6558 31.105 12.6558 31.209V34.5221C12.6558 34.626 12.697 34.7257 12.7705 34.7992C12.844 34.8727 12.9437 34.914 13.0476 34.914H24.9523C25.0562 34.914 25.1559 34.8727 25.2294 34.7992C25.3029 34.7257 25.3442 34.626 25.3442 34.5221V31.209Z" fill="#998675"/>
<path d="M25.3442 34.5221C25.3442 34.626 25.3029 34.7257 25.2294 34.7992C25.1559 34.8727 25.0563 34.914 24.9523 34.914H13.0476C12.9437 34.914 12.844 34.8727 12.7705 34.7992C12.697 34.7257 12.6558 34.626 12.6558 34.5221V31.209C12.6558 31.1051 12.697 31.0054 12.7705 30.9319C12.844 30.8584 12.9437 30.8171 13.0476 30.8171H24.9523C25.0563 30.8171 25.1559 30.8584 25.2294 30.9319C25.3029 31.0054 25.3442 31.1051 25.3442 31.209V34.5221ZM24.5835 31.5986C24.5835 31.5933 24.5813 31.5882 24.5776 31.5845C24.5738 31.5807 24.5687 31.5786 24.5634 31.5786H13.4365C13.4312 31.5786 13.4261 31.5807 13.4224 31.5845C13.4186 31.5882 13.4165 31.5933 13.4165 31.5986V34.131C13.4165 34.1363 13.4186 34.1414 13.4224 34.1451C13.4261 34.1489 13.4312 34.151 13.4365 34.151H24.5634C24.5687 34.151 24.5738 34.1489 24.5776 34.1451C24.5813 34.1414 24.5835 34.1363 24.5835 34.131V31.5986Z" fill="#C7B299"/>
<path d="M24.5634 31.5786H13.4365C13.4255 31.5786 13.4165 31.5876 13.4165 31.5986V34.131C13.4165 34.142 13.4255 34.151 13.4365 34.151H24.5634C24.5745 34.151 24.5835 34.142 24.5835 34.131V31.5986C24.5835 31.5876 24.5745 31.5786 24.5634 31.5786Z" fill="#C7B299"/>
</svg>
